<mxfile host="app.diagrams.net" modified="2024-02-26T03:36:54.863Z" agent="Mozilla/5.0 (Windows NT 10.0; Win64; x64) AppleWebKit/537.36 (KHTML, like Gecko) Chrome/121.0.0.0 Safari/537.36" etag="BpFfqhNROY3UrTgNFq_x" version="23.1.5" type="device">
  <diagram name="페이지-1" id="vcsUpjctQq0g6TjOuMYD">
    <mxGraphModel dx="2058" dy="882" grid="1" gridSize="10" guides="1" tooltips="1" connect="1" arrows="1" fold="1" page="1" pageScale="1" pageWidth="827" pageHeight="1169" math="0" shadow="0">
      <root>
        <mxCell id="0" />
        <mxCell id="1" parent="0" />
        <mxCell id="s4qYqvt0TCnv7wZda3Gq-26" value="" style="shape=cylinder3;whiteSpace=wrap;html=1;boundedLbl=1;backgroundOutline=1;size=15;" vertex="1" parent="1">
          <mxGeometry x="-40" y="665.99" width="100" height="125" as="geometry" />
        </mxCell>
        <mxCell id="s4qYqvt0TCnv7wZda3Gq-1" value="" style="verticalLabelPosition=bottom;html=1;verticalAlign=top;align=center;strokeColor=none;fillColor=#00BEF2;shape=mxgraph.azure.git_repository;" vertex="1" parent="1">
          <mxGeometry x="216.22" y="272" width="100" height="100" as="geometry" />
        </mxCell>
        <mxCell id="s4qYqvt0TCnv7wZda3Gq-2" value="" style="html=1;verticalLabelPosition=bottom;align=center;labelBackgroundColor=#ffffff;verticalAlign=top;strokeWidth=2;strokeColor=#0080F0;shadow=0;dashed=0;shape=mxgraph.ios7.icons.user;" vertex="1" parent="1">
          <mxGeometry x="20" y="287" width="70" height="70" as="geometry" />
        </mxCell>
        <mxCell id="s4qYqvt0TCnv7wZda3Gq-3" style="edgeStyle=orthogonalEdgeStyle;rounded=0;orthogonalLoop=1;jettySize=auto;html=1;entryX=0;entryY=0.5;entryDx=0;entryDy=0;entryPerimeter=0;" edge="1" parent="1" source="s4qYqvt0TCnv7wZda3Gq-2" target="s4qYqvt0TCnv7wZda3Gq-1">
          <mxGeometry relative="1" as="geometry" />
        </mxCell>
        <mxCell id="s4qYqvt0TCnv7wZda3Gq-4" value="Push" style="text;html=1;align=center;verticalAlign=middle;resizable=0;points=[];autosize=1;strokeColor=none;fillColor=none;fontSize=14;fontStyle=1" vertex="1" parent="1">
          <mxGeometry x="120" y="287" width="60" height="30" as="geometry" />
        </mxCell>
        <mxCell id="s4qYqvt0TCnv7wZda3Gq-5" value="Git" style="text;html=1;align=center;verticalAlign=middle;resizable=0;points=[];autosize=1;strokeColor=none;fillColor=none;fontSize=15;fontStyle=1" vertex="1" parent="1">
          <mxGeometry x="246.22000000000006" y="240" width="40" height="30" as="geometry" />
        </mxCell>
        <mxCell id="s4qYqvt0TCnv7wZda3Gq-7" value="" style="shape=image;verticalLabelPosition=bottom;labelBackgroundColor=default;verticalAlign=top;aspect=fixed;imageAspect=0;image=data:image/png,iVBORw0KGgoAAAANSUhEUgAAAToAAACgCAMAAACrFlD/AAAAsVBMVEX///8eiP8Agf95uP8AgP8Ag/+qzv8Xhv9ETlmXwv91tv9IUVz6/f/o6eqUmZ5JUlxwtP9OV2G7v8Itj//09PW00//g7v/t9f+ytbl6gIdjanPZ291aYmvm8f9urP/FyMrB2//X6P89SFOrr7Nipv/0+f9udHxUn//L4f/DxciYnaKFipA4lP+92f+hzP/f4OKLvP9Fmf9Xof92sP+TwP+Xx//t7e4zP0zQ0tR+hIuLkJbbUj2+AAANH0lEQVR4nO1dCXeiyhIGBEFBEcEtYiLua1yijuP//2GvqrpRNpOZe899mtDfORMEGmg/q2vrakaSBAQEBAQEBAQEBAQEBH42rEd34DvCCo6j3cpd7UalmSDwL9A7uIqm67oM/zRF3vYe3aHvAmurajJBZ381dSsk708QrDTiS9E0XYO/yJ/mBo/u1jdAQwGudGV3DMawNw6OU3ag8eiOPT2KQJSujqJCFryqwJ36/rA+fQ+sVbQNSQnruyB46vohPfouCNCqZui1HnCna0LffQJkyG1lnBjjmdX/vT/fByUNRmuTPjYbjRiFPfBUtNJDevUd0AJ6lCJ93CqKoh+j3lxDBVqzBFIAcAShm7JPKrl2btQy7IXY3QfoM5WZgh3aWWBP3TevZwNFlt1Hde3JAdxwS2C5YC1GCkleYRyeBz6V2cN699R418IRCdSBgK1dDMI0OfTyYDxrx8d175nxCsqMSRWjTrIOGoazyo6N4hlI5eiRHXxewIDUmAnl1IFLMqIAlgUSY1CAuwf274kBCk5m7siVOhA1zKPoLh2H88IrzoIFzHC+ItSBCkRLS4bWDTkUiOMedQ1B3ZdYZQ5YVxED9ktkmIlm1Ey0hJm4hw/w2/r0KXROtpRdV6YspEDn5PWB/XtiFIG6A31i1DVcjaYlQpe4BOdFqjgTsUBMdqcsELtNhmEgJrKd2VhB+M/CiZ3OZhKVkQj//wgwYrkdKKo6JZ36kbNTXYSwdzHGVCfTZiVdUeRYdq6owlmR6ryHo3KdvOmt1zGecMJHEUJ3HytUcFkVJph7F07dZwjAkdPltBkNcEJMb2ZcIRCij1PYWjFxtIiMKv1HdOgboYE5JmUfTaTP9lhMIYpOvsRMp+qcVWnWGlvj1qy0ojBW7z+6Y98AzR1xReVh4KKwIrGdCCP+CCXG1600UTk8ukvfBq3jirGnY3HiqiQ84b9Bs7HH0p3RR0O4JH8NjGg/sk7MDqPdavp6/Ez9zUrQBsvf/6POPTduyYD4YVfF4nYYyuruXrFicXVts8qjT1NEDy+p5YKdcjMgujrK0oLMRF/bTPO3dACpS8YVfY38Fk2TWWm7Jqc1ITmGMm9DDObOsUHqErnNGYUVq2PQslqzLebf9VSyADOisuaWsE1Qoja5C36JulhFXY/E6SqI1hYDXnccuwqrP/VbStQ6KPdqbH8wimzlSWS0TXG0Rm1mAwatVo5dtQfjwufVGNbYJmcTaURddERiSawW9zYaMDpjUz19VZYTbfrQRs2Xk0IWFmf+Q001TVTEIqevYAyizt8I2myjbSxJKmh5Ky5Dv26v31agNJVrYQVivFdXY6mJZvh2sAfXyDflZ41Ut0cZZi1X2g5ntI9rWvc07VuUyYsImLXTZKVExdmRKtm1EmsDig8zB1jzmKulPkWqj2WenOJ+FGEsUqK4iboNmaOlT1gScOg1GXofvE2P2Nxjm0a0rCAnYNRhbCCTiwsUKk00FuqHZE2BFQWV2hpHrBICl5IFuNJMBeU2wjYFiYpVEnb4h6MYVmW/y4rOMnfamC2f+CB5QlakGV91fIXaY8bj9RWZo9HbVOO25MfjSh1I2ohLXQ/X8ci0poKxAgMad0PwKkZcsYI7nLAgt1KHGAfrKa/WGZGcceZYfuU1xEpmRuOV2mjcJUHjsU0/4OciRp0UWVaBo/UaH7zGLOz1GuQ3ZE4qw9Fc5Z6S1AUqryGz9mQFCFimot58tua1zmykqnt+EEvOlFxlAJLUWSsQMOae9a9e2gH95kgjLKotJtrcyZn+YCSpQxdOTuRAArS0/ehFGHLEJawJBkPN1XhNU2dh4ckuWv3fwiP72FW0Wjuahxqv8lfok6JOmmFaZHWTqRnl5uIyNkPfZXVLpszy+NaANHXSFv017YOvtkMrqqeG4jHW5hXdwZwN10zqJMwLy5rqTvc7WY3njK8oKdc2LmuTu7L3LOooL8zDBxQuOSuF2aCloGF0oeWw0CeTOqm3h5AsrKl4HWdcB9ZjFGmTOd/4w5FNHTgbh6muqIq8P96fYA3bTEu5coVD3KMOYI1b46+WKFrj3pdtfio+oU7gcwjq/jEEdf8Yn1L3J1osr5qOZh0yJ2NaxdeVrLm7j8Z9bqzg/VAoFw7FIJf8zbSstPi4oPN3x2qJRWQ3WOtyrVwuFArlcq3Q/297+ZTAtOU+ebAvh+EEFaSssuL6ZqFWQJTpby2Hr+Yd48xMIlzgbxjT3JWrsVK79NT0rAacgdgVDvQX/uQsbyJRjUlicVMRmVNHayS01dhhjVjqBVkBilyNv192dqS93HFXvL7OjoMqEyNv8lzTEvf4eGyhnBVubQJUeuW8xbEtLSF2mO91o0xh7asWL2I6lIG5KFM92C/nbiEtVndFijbflVT9K879x2rncLiW422acKiWtyxAC4XqNmRvs103bBO1c8dyoZa0HI08il0DJyNG3KsN1Iw3TtCbUW+COUaHJOkFW+ioZGf2fjA+cBJ/xwYgBmbp8odRbPZ/ViuU0yn393IOjSwVQOgyvSYGaGQkzYgGa0b6q8jfQmm1EI1MkpDQXJUmMtCr6zX5Y93E+k2Uv2Ot1sBRWKshkX0mi71yDQHjtZYOHsBQlPM2KYY4qnxhMa+vk0DpH4ArPjRnrEz2nUVd6P+mfThsm7tZMUTAl3zxskPpvVbrw+ZQo6HJpW4N8T5CSF0c/RFfx850XUBKzgqIo3f+erH1O+IgdF0SrcbHfiV/bWEDYWGz0FQzXtXZwtLYL/y6Mfp1uUx5XoHRRFLbl7X4mxQhmkiNzVxGE3EUlVTN0jq5/oti2HjAGuQxhk0CMydyKnMSX3VYwsxJtE0Ph2vOhS58WdZtPL6T1xL341o0JRELzYDL3EWwKRQpLzyl/zqmV6T/qi21XJNliQ8zliU+0F7ehyuiyCYkFN1la//1jCoxlhfGoIz+gAzm2jG5YubyGTGKLpRdljz1trXCDbVt3rLr92BtZXpPFsqem/Z+GfoFjMtA3sq1Qr7WX3+OcaM8deXVdLv+xM1tNo7bwvYo3mqURr6DAwEBAQEBAQEBAQEBAQEBAQEBAQEBAQEBAYFnRmXerm+ue+2Xc7qJt6nQ9sS3EUxePrv1ZvPJ2RuGL3/W7rngXUwD0PH4/vDXPDy1qYYf64MLbdt8G8GL/cnNfdvxMk90q7EfqPqr+xddfhZMzM7b5rwYhD/7eXH9FufBgn+qm5w6u5q8/sW5f++u7dsZMgyYD9qx3UVKmp8fC3tJ225G37vGv6RuYWZcQJgb7czj3wgnxzlFditdABtilXO37Vy65zOKTZy6LpOkzRlbAnWb4fAt8+4vvuX7t5vXoZ3Hbj20F3DrbvKhePP2sM1HAJw/tYd173ZmOI/29rGY253o7uLXwDSYghvCR98ZADykjglPnah7MejbTAyU1Be/PgBd+ZKh0yog0VUjHP9Vc2AbA/yl8Cm+DXc26cQSdgdhq4th2AZ7muX4Z7iz7XvhGdMcDJ7GnizsRXQXLOjCZBLkVSpzs3qqVJCfur0EY7mpDIm6CdP9HYdR59S90yL+EzC0jbr0Fg76pdnpet55UsFbn9r2kN8azXDlEhK8MDsbbzMxhrjj+/6bV+mwLtaN3xXP61afhrqLndQ5Q+M6+CK6znHQDBuOk6bOoUYTI20jO2YFNAJzXs7GhB1kZT0JXbfgV3sm3RrUCG58BwdAxaErLxkPeCh+23UJrepiEX6VCHXnCHWTIWKZQZ1NctA2h8l7n+g7d9j5iz2PnrtD3ZvNdOpvE9Wpz57j+0h3lXr6RFiS1A0HthMOuGzqYrouIXW0czZTHl/dxMuHJpE0sWMm/A514Q+wMJEnnwnsC1F3Np1l/WlGq4S6Dvvqnc72b37kDnVRC5ugjs50uZMTwdIZgn1usx/lJWbJ71HHeebbGHXS2wR8d/95fJo6/8abf0HdHanzQD+CFTUc26Nr/kTqbtSlpA5wOlcd42mG7cZh/fo76mzmnER1XT2l685m54xYkpZbxsOKO9TNuQe9ZLouQZ2EyvC39Cz4TSMWqMvQdRszHIRx6pYmftGKw6WObtAxkhFX1WQCwr7tmxHzXm6/CiGk7mSQB+0xSc2grmJkOEEPQsWxh57kDRl1ngdjZW55zAmFITc/0ec4dW2740mViR/6dWfU75PknX1uGDyHfNqJfQFtd7rwFIzpnz32GHxa1Tyzh17MC/RmyYQvRl0VowrvYqQM+ePQ9Q3bMQ0fheZtYJq2Y5sGd+7rtmEMMHSIZ04837b9wbBD0YTvDAe+b/jJGLg7CLNRkwHKsdcxTGg34NZiCDp/4LB74kNN0/h1olbOi2N0kCyIJqgp81E6EIG82MbzjFfEvLqsskCxUg/Bv6D3Bp9hu6nzsJVtveGyepbe6KJ5XTpflsNUHBZeAiTW2Q9xXiwvwyvDJ7j1nDUM4YW94SqDnccn4DPPi8tykZ2HERAQEBAQEBAQEBAQEBD4yfgfLhENtFM5ToYAAAAASUVORK5CYII=;" vertex="1" parent="1">
          <mxGeometry x="480" y="281.33" width="159.62" height="81.33" as="geometry" />
        </mxCell>
        <mxCell id="s4qYqvt0TCnv7wZda3Gq-8" style="edgeStyle=orthogonalEdgeStyle;rounded=0;orthogonalLoop=1;jettySize=auto;html=1;entryX=0;entryY=0.5;entryDx=0;entryDy=0;exitX=1;exitY=0.5;exitDx=0;exitDy=0;exitPerimeter=0;" edge="1" parent="1" source="s4qYqvt0TCnv7wZda3Gq-1" target="s4qYqvt0TCnv7wZda3Gq-7">
          <mxGeometry relative="1" as="geometry">
            <mxPoint x="100" y="332" as="sourcePoint" />
            <mxPoint x="220" y="332" as="targetPoint" />
          </mxGeometry>
        </mxCell>
        <mxCell id="s4qYqvt0TCnv7wZda3Gq-9" value="Test &amp;amp; Build" style="text;html=1;align=center;verticalAlign=middle;resizable=0;points=[];autosize=1;strokeColor=none;fillColor=none;fontSize=14;fontStyle=1" vertex="1" parent="1">
          <mxGeometry x="340" y="287" width="100" height="30" as="geometry" />
        </mxCell>
        <mxCell id="s4qYqvt0TCnv7wZda3Gq-10" value="" style="shape=image;verticalLabelPosition=bottom;labelBackgroundColor=default;verticalAlign=top;aspect=fixed;imageAspect=0;image=data:image/png,iVBORw0KGgoAAAANSUhEUgAAAMAAAACZCAMAAABOg8UKAAAApVBMVEX///8Ae/8Adv/8/f8Fev8Af/8Fdf9Unv8Fff9Knf/p9P+32P/Q6P9zu//4+v+Rz/8BcP+Ew//a6/9Ypv+Kxv99uP8ujP9+vv8Dhv8mj/91tf+c0/9prv88lP+v0P/x+P/D3v+o2/+RwP+ly/95sP+hz/9lpP9EoP/j8P+b2f+m1f+ZyP8FhP/O4/+42f90q/+Lu/9Xrf8Da/+05P/T4f/S2f+Nr/9JO3mxAAAMa0lEQVR4nO1dC3equBaGECCCCqK8PEYQwaIUdXrO3P//0+4Ob1uxjgVtZ/zWWbOaEHB/2dmPPGA47oknnnjiiSee+ARCA4+W5T8JI61hPFqYW2D+9TLN8TLVvEdLcwNChCvMf6IKQhHzOTAxfzQBgsWfTeDHa+BJ4EFoEPihNkB+ugYIxqUGfkocOMnZjtPBS47BSzJ+lEhfQOzv/Rx7P+a+Zz6qNHBaFD4WvyGGq18ltN8Gl/7WyuJ2yXH76qq2Uh8t6nkkDimBX/ZQxGURjQww4gqiGT9a1rNYOwijDBgNVC6w9LKog9sJ+aKEpAvZqFD95wFYO5jPu5jHL4wAKouIERCri+2BDET31YdNFhiBwtOXBArkBK4KZOnC2T0qSnwgIP1zAspEROLCf8wg+jIBgfN2FhiQOF0+hEEHGjBGGIORkEFyV8kLfDBi6dSI8edGXPaBTn3v/s6IudECUuZG62LuRgugVjdqzEipJXt4fwKJRcQchJ/uuMDFRVGUIJAdxOqqaLcQ8Ke4GmfQ5g4MTlYLFXVZw+PiRhEENhoX0/e3FljTmgBd9i/+OzJff8TRqglIM6V3FQi+WmHvcd6+LqYCpzSLkOqpJ8XGrapSPM8zK/mBgdu/CtIJHRSg4LrVvwZVcaRy0aK6Oph53PGlKr3YcOugRu4zIQokek2A15PebcCXq3QN4ZWydiRU5mvMCzlSncwNuRBXbfkNmGvZFCM9KJ4X2zrfIHDoPSnyp9UPIhEIWFX/XQ5k4oHz/2qM9vMEEJ0UNu8bXobONdJK4GIkJgUBviy2EOBFxxERDCqRypvDITwcU6NjndxGgG8hADYwa9pA9pxcRQjpuo4wT4/drgZ0SwACiV0l4BXy0JwTIW+JclGgrgm0zAdQGwEWBz4wqNXhvP3vTkOInBpxncwVEhcEymJJQOCiAW5nAPJ3bcWMQJ6fwbDICFT5WqGB4mpBoGpbeKGiWGvAX7TLT/Sg891NiANSAZ3FAbEsSYhCMifWVxcQBxptszhQNX4rjRgimdgu/6FD8YsUzFgtRgXmms/tJ6MK25RTZ/OquPO4pL5o77jhtr44WmaPzLpk0KYCTPuYZxrDGvD4RgnST69RjMHFnBabt+a+UYjjNLBa5Edu0qEBK6mRwxPGBYSxMlSq0njsxYZSXx170HZct/WGjVvHAqPqq9FqsnDO9z7Glt2Z/ALn21TuHgNLJOSs/DwvOUmHM0whcnX0NUhni+ddKKSA4jzqcoasrF4vhJvOwHJXSdex4y4SsN8OLdjb3YUA//r66sgbOUz8juOvF92DgDjQdqsVJNKs67t1oHchgJ1IUZSi6zsOAPchMOpvhfceNgBxS+htn8BbvX5M2zuGvulxPixEtG8CyI16lJ9Tp9LnMnwFGM+7nXm9I5Au9M+F+Ir8ZKr2uCgncMqhXwI80XreZOqZAB74/crPHcU+/agkrsY9L+uuaI8EsNinBeeIbYTbUvcvAy38vuVnezG9qQC7/S9KQyR46Y2AOOt9AHHlbmj3IFiy07ts7iVOP9kEvocBMPiX1gBvB1rs73RWxdP6SKnxYHcP4TOkctfRGMb/y67TyftFCCbpWAUYv6zvebzAn3dsxni6u+9ZrcjtUgUYL+43/nPEq9cO5UeTe/mfEgJnLEhH0QwjN0zvfdYP/MVv2kkwgKBOzYcc9PN2XZgBxh2v3V4NgfPYxOCLowijQTS8n/v/wMBFtysBqCNdnC/vkX62MtgN8M2GAINfpLNhuT/2GIz389fbGADx15dfBve4k8YFUo3eNIwka7HzHzd6GlDUuahfnVcwm8cIxv5o/aDzuWcQB7KTvSHziUdim3hsc55Y8jzJ1q6+BQUmRJrMrewowUUCrIEo0sUsSJX+Vs9vADskMNwlU4dIrXGBgPgSsQbz3TI1vo/oJVh/evEysV/Imw6Q6o1USWIVb2/iYKElSz8eF+2/G3KRUjVJzIU8oJS6lmW5rgt/yfLCDKL12jdO2n475GIJnmf4yygJCiRJlB/aE06afVdciqk/5mMG58T8KbI/8cQTTzzxxBNP/NvwD5LIZ8rWB8bz6bWvZRrT4PNGN+M27QrcmurBlWvfsjO46aDSULviMw2+fdNL0gIXOGhx5Yc4HGytbyAw1sztp2+uKr/nk1uW8QQucfRrCVi8ewsBYWJrnxBgq8jm5JZNkPsR+ATe6j9GoF4DqQmcWxc5EbdBQPjYpFl1UlcMoZN3o08iCisUBK79UiO7Q4ljdvg6KAnkdadfpinb5ZdrAuz17trklLyJUJZYAyV/lMC900CbcCcauIJBHJgUYK6FxCo1ECcLtsx2WI/rbjaOc9YuyPxgSYD9O8qDYd5kGGa3Jdk+Kjt0Cr5WDWXq0k2Y90xGwEt93x+Wog3ThsthBUZAYY3S1L/iTKY6lyS2lKy7mw0pCKhs6RZjBHXlE7y1K+btxNCoCDChZRHzm0xBx4GEstvEY7YVGb4hOaR69sEDXWZVwsS0fdXWAFv2riQMkeF2u6v62dhuVU5ZmbaXJlqG6DOHGlCJ8MhxsrV8Xlqwj+kcXfbWc1439bOneyF7dY84DjtqKI8rDcSBxRNEWVBT5oQtqTs8COywA92CqRNMEOYdRyT6PM4JmLOZadsmQNszAfyZnVQE0tloxzRgJjPWAtrNZsOLo0h14ddk9Y+xpmyxnGmAY68Z0oPq/0lk0ESuk4SJeVD//hO4li4qQAACGdxOQUKyYV8u4EKeEBr6f/vmABEeGAihzvPEocGfv9NQ9rOROGGia0m0TDQYTXv2npQ2qQkAmygjYNuzX9EySjTTvhD5BC6eS1jOg7sSYZwRiClGblF3FAkOWc9QjN18mygOwkBgGphxRjiQYNSts3qgiOV8K2Yog9zrjAARF81hzAjYQcY3Xs+YbOcJ2PYk+3KPYPyybfvCJ5aOOnFULjc5LtCz/g4cTMs6ISTZ4eCQx4PsAxHsJvZkGDhrdYGwlFkJDGVvLqHqxfiYIkn22BASp1zTUQIBe5YWhWQyirwWDcz88lGJrbVnXeMNQhuhoQ5pHo9DXarfxTQsXk84BZQSVIvq7J8lYmqB9ciso1i94RAceXGOceIgOeVMHVP/NJZMzNGqfIwxM1dKC4HiZUSgnmrmr1ZDFkC8+osO0N36wounyGpQPmA95PwBeieJJfKYYB6FJa2lyPN0UWAuEwxDzNR5evpeOWigUgAnzGwtPk9gtq96S0hMrTXJNyh2KsEE7ghxwPMpdhs3JDo6gK2iQfqOALhLB/PisWCwBmeabTBlAIfrMAJk867HJkzm8gcjs5VAWt8TXSDAhoZfPZw7OrrJCFiNG45SQeC9BrATqLJE3HVesWSn3J0aIvhf0MAZAkYrAaEg8PtqAgLl9Xpm5dm6M+eMObLqLvEos4FURs5p7gZuNMiPlNLcYfkwpo7rYM2Q7Tf5mRc6S6AsFARG9QlqVQMCwpINoapVcIHA+KBjt1JpSpEbwM9ibCllngNxAtwU0JDMk3M+RSCDOICmWZeCMsm7WeZ1BJSJvS0zSKixIxYazKCynaHGTP08oClzL3lIB4OAmBBnwUk8FL5lyGJCnDl5Ehbe1ljWqQSXUCw5jIFwwMz35wsbhprlDVcR4BJ7FBXp33BrT+BvQ7MnflEVz8xJ62tOmZ8n0oFFKE89SASzAe0twH1nwdVTKXgTNp48sEcrC0leIvObOpXgAouIlCksfkXEnbOYEx+pc7yeQAziRlnUSiF1sJm0KoSLVR7IEpuZfTsUCgzkzXR6cCQi5a9SG2CbknyYLg4W5ARh3jdTYEWni6kMeYajNNLpOSZEVrLhhIjjQpMN+Nfp1QTYiLEnx91+n2iQZ2QExrsRxGKoirYms4B2QAoGySRCosi+a5LnkKDCDSRzEiRgCDnHYugP5+A32ReokAQ6aU7qQwmLIft7L0NkFkWSf70wI4A/90JCZrqjyWQyMqHj7exIqbKCrI9VQf9fkj+bQgeUgtuzqLwup02QA1FqOY5L8xQsg3fM28kb5nY2TuFXobHpuMc8GodZE5ceci+YOE747vcibVtPWlfar7x7/Dx3nix9bZsHUaFIp4PosxkBcyAqZIiBLzTr4qwuHTenRF6jLp6vq3olCKp8fg1N1kbVN8dT/wFVauUS80J5I/u6qsfOLyjvq7qCcOav1iYd/tpVrc9Mnz+pO7nW+Pv0rjNz8g9T+MaN7y4//+8LTzzxxBNPPPHEE098N/wfV9Y70/EhmwsAAAAASUVORK5CYII=;" vertex="1" parent="1">
          <mxGeometry x="708" y="407.39" width="119.49" height="95.22" as="geometry" />
        </mxCell>
        <mxCell id="s4qYqvt0TCnv7wZda3Gq-12" style="edgeStyle=orthogonalEdgeStyle;rounded=0;orthogonalLoop=1;jettySize=auto;html=1;entryX=0.5;entryY=0;entryDx=0;entryDy=0;exitX=1;exitY=0.5;exitDx=0;exitDy=0;" edge="1" parent="1" source="s4qYqvt0TCnv7wZda3Gq-7" target="s4qYqvt0TCnv7wZda3Gq-10">
          <mxGeometry relative="1" as="geometry">
            <mxPoint x="320" y="332" as="sourcePoint" />
            <mxPoint x="440" y="332" as="targetPoint" />
          </mxGeometry>
        </mxCell>
        <mxCell id="s4qYqvt0TCnv7wZda3Gq-13" value="Docker Image&lt;br&gt;Build &amp;amp; Push" style="text;html=1;align=center;verticalAlign=middle;resizable=0;points=[];autosize=1;strokeColor=none;fillColor=none;fontSize=14;fontStyle=1" vertex="1" parent="1">
          <mxGeometry x="650" y="270" width="120" height="50" as="geometry" />
        </mxCell>
        <mxCell id="s4qYqvt0TCnv7wZda3Gq-14" value="Amazon Ec2&lt;br style=&quot;font-size: 15px;&quot;&gt;" style="text;html=1;align=center;verticalAlign=middle;resizable=0;points=[];autosize=1;strokeColor=none;fillColor=none;fontSize=15;fontStyle=1" vertex="1" parent="1">
          <mxGeometry x="296.21000000000004" y="440" width="110" height="30" as="geometry" />
        </mxCell>
        <mxCell id="s4qYqvt0TCnv7wZda3Gq-15" value="" style="rounded=0;whiteSpace=wrap;html=1;" vertex="1" parent="1">
          <mxGeometry x="209.99999999999997" y="510" width="287.95" height="330" as="geometry" />
        </mxCell>
        <mxCell id="s4qYqvt0TCnv7wZda3Gq-16" value="" style="rounded=1;whiteSpace=wrap;html=1;" vertex="1" parent="1">
          <mxGeometry x="218.97" y="626.97" width="270" height="203.03" as="geometry" />
        </mxCell>
        <mxCell id="s4qYqvt0TCnv7wZda3Gq-17" value="" style="shape=image;verticalLabelPosition=bottom;labelBackgroundColor=default;verticalAlign=top;aspect=fixed;imageAspect=0;image=data:image/png,iVBORw0KGgoAAAANSUhEUgAAAdQAAAGNCAYAAACopoBTAAAgAElEQVR4Aex9B3tbVdbu/Qn3ee537/cNia0u2QlJ6DNAYqtLLnFRb7ZTCaFOKEMNvQwZWoChDL0MnWHoDAxt6BDKQEINEEJCEtJjW9Kp733WPlImQBJIYtmSvU7YqFg65+g9++x3r7XXetf/Am+MACPACDACjAAjsM8I/K993gPvgBFgBBgBRoARYATAhMqdgBFgBBgBRoARGAIEmFCHAETeBSPACDACjAAjwITKfYARYAQYAUaAERgCBJhQhwBE3gUjwAgwAowAI8CEyn2AEWAEGAFGgBEYAgSYUIcARN4FI8AIMAKMACPAhMp9gBFgBBgBRoARGAIEmFCHAETeBSPACDACjAAjwITKfYARYAQYAUaAERgCBJhQhwBE3gUjwAgwAowAI8CEyn2AEWAEGAFGgBEYAgSYUIcARN4FI8AIMAKMACPAhMp9gBFgBBgBRoARGAIEmFCHAETeBSPACDACjAAjwITKfYARYAQYAUaAERgCBJhQhwBE3gUjwAgwAowAI8CEyn2AEWAEGAFGgBEYAgSYUIcARN4FI8AIMAKMACPAhMp9gBFgBBgBRoARGAIEmFCHAETeBSPACDACjAAjwITKfYARYAQYAUaAERgCBJhQhwBE3gUjwAgwAowAI8CEyn2AEWAEGAFGgBEYAgSYUIcARN4FI8AIMAKMACPAhMp9gBFgBBgBRoARGAIEmFCHAETeBSPACDACjAAjwITKfYARYAQYAUaAERgCBJhQhwBE3gUjwAgwAowAI8CEyn2AEWAEGAFGgBEYAgSYUIcARN4FI8AIMAKMACPAhMp9gBFgBBgBRoARGAIEmFCHAETeBSPACDACjAAjwITKfYARYAQYAUaAERgCBJhQhwBE3gUjwAgwAowAI8CEyn2AEWAEGAFGgBEYAgSYUIcARN4FI8AIMAKMACPAhMp9gBFgBBgBRoARGAIEmFCHAETeBSPACDACjAAjwITKfYARYAQYAUaAERgCBJhQhwBE3gUjwAgwAowAI8CEyn2AEWAEGAFGgBEYAgSYUIcARN7F7hHQdR07a4oOSKrR6LkGQAegaRoKkFGEAgmKeCYhDxV5AAVALwJqqekKfUPsX9FlFNUiBgr9GCwOiMdtg1uxZuMWLPtmM5Z88j1eevsLPPHCe7j/iVdx18Mv4IZHnsMNf3sON/7tedz0KLV/4i+PvYC7nnoZz7z6Fl589wO888mX+GzVOqzaMoj1BRXbNg9AGZShFenkdeiSBsjiNABdA3QVxhuyOOeCssU4X12BKhWhyrLxQ0tfoa9So19Cv9/Y6Nl/XpXf5UdGgBGoXgSYUKv32oyaM9sZmdJ7BnvqUGUViiRBk2RAUQFVBYgoqWnU6LXxeaIYSQe2FmSs3rgFn377Pd76+HO88Ob7uPWJl3Dl3Y/i9CtuwpwzLkbX3AWY2t2DA8JxTAzF0RiIwunthsPTCbu71Jo74KDm7oTTQ60LLm+3aE5vBA3+GPYPp3Bgew8Oi8zCEYmjkDnuVBx79oU496rrcc3dD+K+Z1/Cix98gnc+X4EvV63B6o2bsbVQhAQdEjTk1SLykgRJUqCqpWkDEa+mQFeKYjKg6To0TYeq0GfU7ROQUdMJ+IcwAmMAASbUMXCRR/on7pJQyVKTJKBQBGQFWrEIXVIAWQPyeYCeK7ow+DZtlvDpF9/j2Vc/wM1/exaX3Hwvjr/waiSOPwuezDE4pKMHrtaZsAZ7YPZnYQv2wNEyA7ZgLyyBDCyhFMzBJEyBBOoDCfFIr23ehGh2XxLUHKVm86dgDuRgCmRh8mfEoyXYA2uoF9ZADPZgFI4gPcbQ0JrCQbGZaOo9FumTzsKJl16FP912H/761At45b2l+OzbtdhU0IV9TZYo2a+6KgNaEdAK261XqBLkYgGyrEDVyKof6SvHx2cEGIE9QYAJdU/Q4s/uFQK7IlRdkQFZAmQV0HRoim4YowDyqo6v1/yAR59/BZfceCfmnvVHtM85BVOTR+PAzj44A0nUN0dgcsdg9qVhCeZgD2Zh9adh8SXFI70uv2f2xGF2x2H2JGDxJmHzp+EIZmELZHZoaVgDpeZPwepLbG82fxL2QAqOYBpWb2p7M7sTsHiScASycIV7YAsn4Qgn4QpEMSkQhzc+B6n5p2HBhVdh8d2P4JUPPsH3m/tRICtUOLnpt8vQ5SIUqbDdzasoKlSNrFneGAFGoFYQYEKtlStVw+e5K0IlE4yMsKJKrlFgcxF4Z9k3uOORZ9B69PGYlp2NSR0p2MJRmIIxjPPHYA4m0NCShbMlC1drL1ztM2FvnQFTqAcNvhhc3igcngjs7m44qHm64XRH4WpOwtmcgMudRIMnjQneDPb352DxJATJEtGa3PFSi8HqjmGiP4ZGXxSNvohoE3xRTAzQMVJo8KbR6MuI1uDNwOVJw+5Jod6fhi2cgyOUEdZugz+ByeE0JoeSmBSK4cBwDKHMHPzh0ivx1Ktv4dtN/diSp7Viw3KVVQ0yWe4CGTZRa7jb86mPQQSYUMfgRR/un7wrQt1aKGDlxs14b/kK3PLIU5j5h/NxZGwmJrck4Won92oSdZ4Ixru7hIvW2Z6DI5yC2d0Bs6cTVn8M1mAKZn8S4zxROAJp0ez+FGy+FOy+lPFeMA17MAFrIA6zLwqTN7K9uYJJUCOL1xlIwOGPi2b30+dTwto1exOgZli+ZLnGYPVGYfVFYfPH4AgmRLMLqzkJszcNmy8NsmotvjhMnm7YfVE46bP0HXcnrM2dcPljOKijF6dddiPue+ZVfPrtOmzsL4g1VCOwiQl1uPsqH48R2BcEmFD3Bb0x+l0iSIrELW/idSnGaDsFiAVAI+KVAnFUVYeqG5Gsazf14433PsaN9z2KeedcimnxGXB6OuDwdsFBVqg7gno3uVvJxZqBI5CCzRuHxR2B3RdDQyhhEJMgtRisRH4+Ir2UaBZyAQtCI5dvDvZQFuZgDOaA0SzBOKyhhHDPOv0JOIlEfdRisHuNZvPFYQnkYAlkYQ5kxXNan7WFiOgTsND+/BGjBaKwiEb7yMAmXMJ0TuRaTsIaSMDqicDmjcLuS8Dup/dTsAXSsAcyaPAlsL8/gZae43DGoj/jwWdewgeff4ON2yiyuRT9TPiK6OFSwJaAlv5H/+mQVQWqrgm7tnxd+JERYASGFwEm1OHFu+aPRu7IHQmVniuKIpZCy3kvGgUVEeHqKvLbNomo3AEZWPb1Gtz64NOYd/qlaMkdj4Pa++Dwp8Z28yVhbo7A4o7BWZo4TGzpQfux5+Kcq2/BEy+9jlUbtxlZORQZTMk1uiRYltacdQpeIkLVZCigdVneGAFGYKQQYEIdKeRr9LjllA46fbJSiUyJVCmoiJJKpXxReCsH8kUMSgooRfNfHy/HudfcjGB2Hn7b2YtDu2fC6o7ANI0s0rFNqE5/Cg2hjCDTCeEcnIE0xh/ZCVNTNw7uzOF33VlEjjoRtzz4OL7bsE1YrIWiii2b+0UAl3EdFEjFQahK0ciDrdG+xafNCNQ6AkyotX4Fh/n8iTzJSpUkabulKt4bGDAidknjgPJEZeBfH36OUy6+EpPbM5jS0YPG1izq3BGM80TgaO9DQytbqESormBGWKnm5mgphScBslLHe7qwn7sDrlAck4Mx+OKzcPkN92LFujwGKbtIB/KSgnyBooNLrmDhJhjmTsGHYwQYAYEAEyp3hD1CgKxSYZFSHGpJAYkIVlVUDOYlfLPqBzz76hKcdNFiHNbZK6Js7eE0TP446n1xmCntJJxFfTADyxi3Tsk6p9xXskZpjZiI1eFPwtwUEQRrowlIiAKuIqA1XZc3jgPDWfiSx+KPN92Dl977BGu2FlEsr1+rCjSV9JZ4YwQYgZFAgAl1JFCv4WMaKR0kZqQKdy/9lGKxiOWr1uOhf7yO+Wf+EYd39cFJAUP+BBzhHGyhDEzeOOo9MRE5aw9R0JARSDTWXb5EoCQuUSZXizsKS8lStfhLAhSBJCyBlMDOFkiBophd/gT8Pcfj7CtvxkvvLsWmbeQx2J7GWsM9jE+dEahdBJhQa/fajciZl63TsqU6ODiIZ555BnNOPg+Hd88VVpTDl4ItmIHJn4YpkBMEQJGtTtEScPnjcPlioAjbMU+ovqQISBKk6iNBiDRcwbSwWCna2RlMwUkWvTcOE6XxtGSxH30n1CsihKe0ZBFMzsXZF12Nt5csQ6HAFuqI3Bh8UEYAABMqd4OfISCk3fWSRB79taQ7K6KNKIKXJHcBvPHpt5h17iI42yjfMvYryTEp3Jpjnkh/5O4mTH4anPVTnHb8jEHCRL5k4ZqmdYPWYg9PHouLb7gTy7/7XlwfukaqZkjva/KgEI8oaMa1o3jhQqEAmaQfOTb4Z/cAv8EI7A0CTKh7g9oo/06xKImgXUXVkM/noZA8oEZVVjYiX9DwyRcrccVNd8MdnwUrCcuH03CFszshhZ+SBL/+OXHuHSaUz9oQyop1V0q5IVcxWbYHhlPIHncaHnj2JaxcvxVFEtwv5a9SIDY1WTHE96kbk6eB3Pe8MQKMwL4jwIS67xiOwj1oQrxdKhbEgEsD8MBgAavWrBPC9NGjT8akQBQTg0nYSbKvOSGUiYaKLHg/v0yyVg8pOpG6U0pIHFo9MVCUsLnZkE08ZHovjj/vT/jH60uwYaAgLFYoVPqOSseR7WoQKYnwE8nyxggwAvuOABPqvmM46vagyVQFRTbyTHUIrdl/vr4EJ51zKSZ1ZtDYSvJ7NHiT8k8WDaGZcAVzbKH+zG37y8S4t5MHIlCySg1iTYn8VYoYpuo649xZmN1JHNTeC29yNs694gZ8tmqDQaZ0XeWiiAYm65TJdNTdvvyDRhABJtQRBL9qDy0UeXRh1Xz7wzZceesD8CbmYgKJzrdSoFEM45q6hL6tK9wHiycNK1VcGUZCGevHIvcuESgRajlKmDCx+DIw+3uEnnD91G44PVEcHpmF1hkn4snnXsSGLQPiupIMJG2aqpbWUau2N/KJMQI1gwATas1cquE7UVlRkJc1vPHBMsw6+TxMDqbh9OdQ15wRAvPjSdi9laq95PA/R3ag3hOHU+RQVs4iG+sE+tPfT0FI4j2ySr2kFRw3dIIpn9WXREMwIwjXQuXl3AmYm+No6urFFbc+gE++XYe8qNmuQ1ckaFRGjzdGgBHYZwSYUPcZwtraQVmMgQyU/1gpNKCSsLpO9bzx9ZpNuPXBJ9CSPRoTvFE4fSlY/T2wBGcIcXq7P466pk7Uu7vR2EZ1SKk+KKfA/JT0KvmaystRYJIgVlEcnfBPojGYQiOlI3mosg0VTU/D6qOJUBbO5jgm+hOYc+Yl+MfbH2JLQRJ6y9CUUm1WXdRgpb5BrmBeWq2te5vPduQRYEId+WswrGdQzh+lwVLU9VZlaNKgEFwvaCreXPYZjr/0Bhwam4e6qZ0i6IXSM2jNjjRnK0kSvO/KWvguTxZ2upahGDyzj8W19z2Cr79bBwpMKioFaNAgKQoGixKkUnWgYe2cfDBGoMYRYEKt8Qv4a06/bJXu+FkiVjJDdFVBoZAXOYpP/utNUATvxHAG9dO6hAReY4iCjrJCaIDk8Zj0Kkt6lcR3oj+H+qZuYw3cPR1OXxdOv+xGvPfpV8grkqhVQ34KhSQMNfIJ/6dE3459h58zAozAzhFgQt05LqPm3bKyEf2gMrESmZKEIOm+SqTBqwE33f8YDm3PoCFoCApMbO1BI8kGeuPCOqVcRxIQqOSAz/uuMFk3RQ1VppYM7G29sFA9Vl8G8fmn4V9L3gNJ7Euizq0OVS4AKq+tjpqBgH/IsCDAhDosMI/cQai8WnmjBP4dk/gLkoYvv/sB5119Cyb4qHh3QmjsUkFvWo+jOp1USqws3M4WaoUJrxxoVKFHly+Oia1GwfV6fwrWcB/MvqwopdfSOw8PPv8KfhiQMFCQhZAHKH2KN0aAEfjVCDCh/mqoavODOxLq9vVTXUf/QB5vfrQcxy68HBPJUglkjOZPCGI1LFNDPICqoFCdznLOI1uStUmsrlBa5A6LYuYUlS2ueRoWfxJ107pwUEcPrrrrYazc0I/Bogxth8lYbfZ+PmtGYHgRYEIdXryH/Whlly+RqVg3BUCC9u+89wHSx52FScEsrL4cnC0zYfGSgH0cDcEUbCUlHiJTu0jLiAnhdibT2iRTum517hhcoQxc/iTszd1weSNoDMRgDWZQF+zD+OYYDmzNYuHl1+OTr1ZC5SXUYb9f+YC1jQATam1fv+1nX14f3f5G6YlCWvY0MlJYrw70S8Aj/3wLzfG5cAnXrkEQTrJWfMb6qZHjaDw3CDQpUjC25z5WyCXJZF1ZsqbrS1KFRqpNonRNk7AGkqjzxWEPZdAQzqIxkMJR516Dt7/ZVuo3lENDes4F6FDFWis7g396p/FrRoCrzYyqPkCkKop9l8TOxZopjYUkiC4r2DZYxH2P/xOHd/ShMcApMEzgJQIPZWAhXeZQGo2tPSL4bFJLDzKnLsI7H34OiQLCKUBJK0KFjHVbN1HBId4YAUbgJwiwhfoTQGr15Y6u3fLzMsEWZRkbtvTj9gcfx7TuPlimRuAKz+SIXba0RR9wBtPCSjWTyhJZqJQm5YnDPK0byWNOxz/fXoaNeQWyiABWISt5Sq6p1VuFz5sRqBgCTKgVg3Z4d1wmUToqPZckySjNBWDjQB433PMQvIk5Yv3MGZ4h9F7ZQqusi7VW8BVuYCpq7kvA7I6CCJbWWilnldy/7XNPxdNvLcUWhZYPKD+V3L/s9B3eO5yPVgsIMKHWwlX6FedYzi0lMqVG0b30uH5QxrX3PIyDWkmGLg5XSy/2mxqF1c/1S2uF8Cp9nmSN0rrqhFBWRAHXN0cMi9UXF2uqVNUmevxCPPP2MhSEHiGtybOF+ituS/7IGEOACXUUXHAiTlovLZMq/SR6b+PGjfjTbffD5e2GyR2Hs202/u8RXXCGMti/lddQK01UtbJ/mzsGhzuOhkBaBC2RNrM9nIEtnMH4aR2Y2N4jZCjb55yKf33wOUTwLwv9joKRg3/CUCPAhDrUiI7A/jSySEuBSJJUFAPeqnU/4C933o0D29KY0jkL5mAO47wZOFtnwO6Nwelh1aNaIbxKn2djII1Gfxr2Uik4eyAlclPrSQiiLYP65m5MJGWlqZ2YPvNEvPreZygoEBM4vaSir4v1VQoKZqYdgSGAD1klCDChVsmF+DWnQVbnzppKUoIaBYtIKEiD2CJJuO7+RzE1fZSwOCo9IPP+R/FarC8Jqr1KJeImtvZi3BEdaD/2XDz73mfoHxyAbuRlQZcU4SWhfsgbIzBWEWBCraErvzMyLb+nyBKKUhFFXcf9zzwPT2YeTN4Y7BzJytHM+9AH6qd1Y0JLTqhkUZEEc3MU9F7PKefjnY+WGRWLaDlVB1RNhQIm1BoaUvhUhxgBJtQhBrSSuyuT508fVVWBLBfEUPb8m0twWHsSjkACplAOFq5TyoS6D4RKBRFILYt0nYlQJ7XPEMUSJoeTOObsC/HpirWiru7AYFFUqVGNFdZK3ga8b0agahFgQq3aS/PzE/spkZZf0/ppf0HCK0s+gjs2A6ap7aj3JmAKZuEIpJlQ9oFQxro7m9y9hAHpOJO+s7kpInJUqSrRlNYEzr7yL1i5fkBM5lRdR0Ee/HnH5XcYgTGCABNqDV3oMoH+9FHWdLy57Gv0LDgXDnLzBjMwUU6hLyaqxox1UuDfv29rvCSmbxRISAl3L1Uloj5m9idwQGsGF15zK9ZtGYSsk8OX81NraEjhUx1iBJhQhxjQSu7up0Rafv39+k044aLr4PQm4Grpw3hPEvZAEk5ft8g9ZULZN0IZy/gRkVo9xsSMiJTcvtTqPAnUBWltNYqm7h7c8tcHsHHbZsg6W6iVHAN439WNABNqdV+fH50d6aeSrqoQ59U1kaBA7120+BZMauuF3ZuE3U+KN2WR+wRbqOzu3SeXP6koUW1ch4+EQUhcPy1EIJzBJEy+KGwtPbCFejA1MQ+Pv/QmCpIM4f9VDO0HSqJRdUqxKUUu/ahH8wtGYHQhwIRaQ9dT1iiS0iDUQr4gcgGvv+theBNH7dOgOZYtMP7te2e9uwIJWD3dMHmTRqHy5hj6FizEsq9WGIRKCoUU8KsDxaKM/v5+40UN3W98qozAniLAhLqniI3k53UVipQXuai0UvWPt/6NYO54WKZ2MaGyJTq8fcAdxUQ/kWoSdZ4ULL44bE0tOHXR1Vi7fkDE+ioqoJJ5Sp4VSRrJO4ePzQgMCwJMqMMC8xAdRB0UouQDkowPv1mDzEnnY0K4F/YA6/Kypbl3lube4mZ3RzHJn0ZDIIvxTVG4WnKw+bsxsSWCmx98Gt9vk1GkWryybCxRAJxQM0TDAO+mehFgQq3ea/PzM9MGRdmsFRu24KzFt2LK9D6MmxaFPZQbXuuErcExjzfp/pL+r9OXgouClJq64QgmYfF247fds/Dgi29hUAcUVYYsFURfFhrAP+/V/A4jMGoQYEKtqUupYFOhgAdeeB1HpubBQYWhfSmYRRTm8Fooe2vZ8PdGx3US5d08UZjI9duaQ93ULpiao2hs6cP/O2I6kgvOwfufLwdIO0nKi7uMCbWmBhs+2b1AgAl1L0Cr/Fd0ITy+/Ti6LtxmFOOx7LvVaJ9zIpzBBGzBNKjUlktEYo6OgZoJtzauozWQgjmYEpG+Dn8Ck1v74PJnYW5KoqFrDvY7PIgLrrkeGzZvFM5eXaPgJC75tv2e5iejEgEm1Cq7rDoFHil5DOYHRFqMKmvQijIgKVi7ScIxCy+FM9gJS2sc43xRuMjd666NQZjJcmxcp3H+CBxtGRwSm42/PvcGBkRNcipKTklepSo1NEksbVR2kDdGYDQgwIRadVdRR6E4AFU1Bp98vgCa3Suyhpvu+TumduVgcrfBHI5inDeChnAPGvxc25TJunrIuqGjB79p6sSEtgzix5+JD7/8zrjLKHe6VLuX6veWN3qPN0ZgNCDAhFplV1HTNSOQQ6FADg2SqoKodcmyL9HedzxsU1th9XfDEk6g3hcThOr0s14vE2r1ECr1S0drFhZvDPuHEjjnypswQEIPpXuNCJSsUibSKht8+HT2GQEm1H2GcGh3QLVNFVWBVByErklCdGbVljzOvPJGTAqn4PBF4QwnYQslYQum4ApnYPORIlL1DKh8LmP7Wvz3Ee2Y2DETFlFLNYkjunvx6ItvYmeZqEyqQzt+8N5GFgEm1JHF/2dHp1k8kSp0SjfoR16V8cjLb+DI9FGwB9NwhrOw+BKw+BMiytcaSMJG0nBMqIxBlfQBuz8JkzsOG2n9+pJoCMSR/v1Z+HLd5h8H2wnRL50t1Z+NAvxGrSLAhFplV06j3D1Nh1wcAPQ8vlmzGrPPukBYpPXBNGzhHMzeBOyUBxhMo84dBZEqE+rYtgqr6fo7qdybNwWzLw17uBfjp3Xi0M4eXH3H/RgYGICi/CfalyxUtlKrbBDi09lrBJhQ9xq6Cn2RBhi5CEUqCnfvXY8/iwOmZ2EJZWH1pwSRkgXgKKXKWIlc2ULlCUWVWKeC2Esi+jZfCs5gFlT+rSGYQuuck/DG0s8N1y8F9mqG4K/CGkoVGkx4t8ONABPqcCP+i8fTAE0SARzLV/+A6LyTYPfFUE+z/WoaNPlcmMT3sA9Mae/B+X++Deu2FaGRlapp0FQJEpTtAUu/eHvwBxiBKkaACbXqLo4h4lBQgKtu/StsR7bAGUzBwpG8TGB7SGDV5AY2LNc4Arn5eO2jLyCJrBmK9lVIS6nq7kI+IUZgbxBgQt0b1Cr4HVpPUlQd73z8JdyxmXD54iC3LgV3iLqUtT6o8vmP3YmBL4mJwSTOvPxGrB8ku5TiBRSolGjNGyMwChBgQq2yi0g57pu2FXDWohtgmdoJR7AHde4Yp8YwEdc+EfvSsDYncMj0HP718RcghV9BqorCgUlVNg7x6ewdAkyoe4dbxb5FUb6vvvNveOJzMaFlJsZ7srCFcmgIpUDRk1XnxuNz4mvyK/uA3Z+FzdcLc1MXTr7sGnyzYZPh7KVOzxsjMAoQYEKtsovYP1jAeYuuxURvDA1tc/Gb5izsoV7YfVHYWcCByetXkld1TrxysAdmiQh167QQnn3rHeRVHRpVIt+DrXL0W7k978HP44/WMAJMqCN08XSo0IXMoA6RlkdjSlHDm+8uReioM2D1xGHzxtEQzMDcHIHdy2pI1UkS7DX41dclkIbJnYTdm8H+oRzmnH4xvt+Sh6zRvWDko+7skWIKFE1DQZZRVEtNp0cJii5Do7AmXYKukxYTNSpqLpQ7oUg6inkF+UEZ+QEJ+UIRRVmCTJKepUb7Fuu4JPepkog/RSArgKpC11QKRhaJPXSL0m51UDCVul1ve4SGED5sFSLAhDpCF0WWaQDQoaqkaQqQFr5U0HDNX/6Kia29MDVFYPPERSCS1RODK5hhl29NW2dMvM5ABlZfBnZfFpbmKDzJuXj6tXdRIMLaFaGS5q9skFt+YACFQgGSQoQoI69IKOoqitCxTVbx3cbNeO+L5XjuzSW45bF/4PoHH8ei2+8TqTpnL74JZ119Iy645iZcdv1tuOb2+3D7w0/g0X++hlfeX4Yln63Ahi0D2DpQQFFWjTQeXYOqSEaKz/bAKUOHWNN0Q9FshMYPPmx1IsCEOkLXRS6pxVDVDVUDZA1Y+uVKRGaeIBLhnSXhBsMyTaL8+ldbA0w+7B6usj5g9yVh9iRhC+Rg8SQwMRDD2VfegO+3DkLVdmGhknkoyaTHCbUoQZJkoSRWVDQMasDX6zbgoedewsKrb0LulPMQnHEiDk8chQOiszChoweOcArWYBy2UALO1jQmhlPYP5jApFASk8NpHNrZB0/2WLTNORVHnX4R/nTzvXj+zQ+x8odNGJRkQfQQK72yyJnVVEPliSbBvPQ7QoNnFR+WCXWELg4lChglrGIEYLsAACAASURBVDQx0y0C+NMt92KitxvOQBqN4Rxs3oRw+1IwEqnN0IDEhMqWXq32AUr/svhTMPvT4tHpjyPYMx+vL1sOdRcWqqqoUApF4WslEqPKS2s2D+Lvz7+Cvt+fBm+iD5P93XC4u2ALpGAL9cIS7IHVkxLN4k7iR82bhtWfgcWfgdmbgsWXhiPUg4bWGXD6k7BO64TjyFY0d2dx7uXX4vUPlmITySWCFmkM168o30rp4pztM0KjZ/Uelgl1hK4N3ZyFPNEoreXI+G7LIDqPPhV2L7l5U2LN1EI6veT29SUFsXIeKpNprZKp6NP+JJytPajzJrFfcwxWfxyNgW4svu/vKEjyTtdRyQokl/D6fgmfrd6A2x57DvHj/oBDOjKY3JISwvt2b1SkldlI5jCQg8mXhcOdhMubQoMvLR7ptb05DosnabidhXB/Rqzp1jXHUe9OwOpPwxnKimUW89R2OJqm46DWJHInn42bH30an6/dhI0FVXiTqFa6PGjULB6hIYQPW4UIMKGO0EUhQqXZN8kMqrqCe578B/Zvy8Aezm0XcKB1U7JKyTrllBkm01omUzp3KjNoDaZR709jnDcJc4D6dgdiJ5yBDZu37pRQC7KKJcu/w+V33I+2OSfCGYxgXHMH9vNGUE8Wry8Fmz8tGpWLM3viMHtisPijsPgjsPgi4rk1EIMtSIQaNWITyNvjowCphHh0BchyJUWyFKyBDIic6dHkS2FcczcmdfQifsJCXHXbA/j4sxVQiOVljgoeoeGzag/LhDpCl0Zwqa5DUiVsKhSR+/2ZwsVLKTJEnuT2bQhlhLVK0b5MqEyotU6olPZl9SVgC6RLLQW7L47JbTk89eKrIpJWU4pQ5YJwr67YMIDr7nsCXceeiSltGdg8ETiCSVjJNUuVlwIZ2P3pUsEI2ldZTSwJe5COExdWsNUfgzVA5eQoUj4hXLvk3nVQGlqpiddEqkTStNRCXqJgFrZAFs72PpgDKdQ3d+Pgjj70nnQB7vj7S/h2oyrOWRdhwFRBncT+jRVX9gaP0MA6wodlQh2hCyCCGqCjAODVjz7BkZE+2GhNx0MuJyYPxmBs9YGTzr9MBAIpmiqieJ966TXMP+dKHNQ5e8TvB7MvjvGeKOyhNFzhLKzuGA6PzcfRF9yA199fhkFJg64oKPRvAYXsk04xBU3xNvYQYEIdqWtemsluVTVcdMNtmBJOwupJw9w8tgZSJk6+3tQHDmlJ4e3PV+H7bUXc/ehT8MZnwN4cwbgjIyNOqHYKdgqmBKHSc9O0btQd0QFLUwQdM3+Pe598Aeu35UWqjSwVOFpppMbUKjguE+oIXQRFkoRb69PV65A4/nRMCCVhbkrCFewb8QGESY5Jbrj7gKWpC+ff8jBOu+oWHNaRhWXadBwYmQezz1j2GO7z+dHxAim4aPklQIXT4yInfEJrj1iWGf+76Tg8MhuX3Xwvvvx+vbinVTkPjRLLeRtzCDChjtAlV/KDkDTg76+8hab0PHGTjju8GxNCTKg/GszY/T0mJlgUUDShrQf2QAJ2fxz2IFmFGYxvjo347ycXLwUwNYogQWMd2OJLYHxTF6wk+O+NY1I4hZMuvhoff70CRbkIRaYIft7GGgJMqCN1xVUZm/vzOP/Pt2NCSwb2YA6mqTE4vOkRH0CY0NhCHe4+YPLGYQkkMaFjJiyBNOpozTKYQkPLyMcUNAYymBDIwOmjZZk4TJ4YrHRu7b1GABMFWfmScPmi6Pn9aXjjw49EsNJIDS183JFDgAl1pLDXZHy6/Bv0nXoufnPkdNjDMzChdaYobzXcgxkfjwl0pPvAhOl9+D+/a0G9PwlLKAOTNwaztwuNLSMvZuKiqN9pEdg9cTSGKfI3ifGeCOrJmqaApeYIGqbPEhHM4w5xY+6pZ+LDZZ+M1MjCxx1BBJhQhxF80u4tb4ou4eUP/o0Dpmdhb+2DJZTD+GkdQhptpAc3Pj4TLPeBfesDfadciKVfrRYiEIWBAUBToeiGdH95DODH0YcAE+oIXVMJOhbfdS8mhhOwhnIwBzKweKNoELly+3Yz82DI+HEfGNk+cEA4i+MXLsLqTYNQSfdXVVEsFln/d4TG2+E6LBNqBZHesRTVTw+zRQNSx58CJ6m5BFKo8ybgpNB8nyE9yAPiyA6IjD/jvy99wOqOY0prD86/7k6s65cha1T3tQioHKz007FwNL1mQq3g1SRC1aj81A6uXjocvffBqg04uC0Jpz8m1mTq3FE4w1lYPCMf1bgvAwl/l4mI+0AKjSS2H+yB6cjpuOXR57CNykmRbvfA+gqOOLzrkUaACbWCV6Bsoe54CCJTWZZxzd+ehysQFYTqCCZgIo3RYAqWkjg+D0pMTNwHarcP2EkH2JOCM5SBr+c4PL/kY8gk/aDndxwO+PkoQ4AJdRgvKBEskSkVSY6fegkmtGZgE+XaSD80CjPpnAY5bYaJpHaJhK+dce2oEIDZG8f+nbPhDCRwwsVX46sfNkCFUU91GIcdPtQwIsCEWmGwjRqOKnTKTFNV6KqOb9esw0GROWgIE6HG4BDh95QwnoQjwITKgzITaq33ARLyJyK1hrIY747j4K4+3P7Y09gmG+L/FPVL9ZAp7l8TS0Jkvf4nC6DCwxLvvkIIMKFWCFix29I9UgTdOAqgaqIaxXNvvrO9kkytDxx8/kx+3Ad+3gdcgRgs7i7s50nA0jIDNj/VVT0Ln65aBagSVFkSsRWqpgseLcdbVHI44n1XHgEm1ApiTNYocSitnRgWqjEJvfK2u0H1F3kg+vlAxJgwJqOhD0xsSWP8tOn4r991YP/I0TB7ozggHMVVt98DRdOxceNGMfLk88aaKlmr1HirbQSYUCt4/XRVEy5eGRokTQF5fQeLwLyzLuL6pqzRyxOqUdwHaCmHdImpjmqdL4V6TxRObyd82Tn4dt0W9BdVYZkqUlFUp9EorYY9vhUcjYdn10yolcSZ7hBNB9WVKRKh6sCKNdvQOe9kOKjA8SgeUPi3saU5lvsApb9RhK81kMa45gisgQRsvigc/giuvfMR5HVAVmgZSAI0RWj/cgXVSg7Gw7NvJtRK4kyEqgN5TQYVc9I04F9LvsC01DwmVJ5M8IRqFPcBWjO1Ue1UdxQWEmsJpUG55uZAGp1zTsHnqzdBofUgTQJ0xSj7VsmxiPc9LAgwoVYSZkGoGgZUSQTLKxrw0NOv4cAOKtHGFupYtmD4t49uC54q0tiphmowiXp3t0iHq/en8BtPEpODaTzy/BtGRRqVCpIrKCqaINVKDke878ojwIRaSYzJQCWFFBHdq6NfBv50xyOY1DaTrZNRbJ0wWY5ustzX62sJRnHM+Zdj8yDFVehAgQKTFCNwsZLjEe+74ggwoVYaYqGMTekyOjb0F3HW4tvgCGSYUJlQuQ+M0T5gCcbQdfTJ+PjLlaRGCKgk9qBA1znKt9LDcaX3z4RaaYQpck+ncAMdK9ZuwFELF8HsJXcvu3z3dabP32dLsBb7gD2YxKHT03j0n/9CQaJgRZpwq9AEsVZ6QOL9VxIBJtQKoiu4VOzfINSPv16JyHGnwcLygmydjVHrrBYJcKjPuSGcxQRfN66+/T6s3zYo1JJK6g4VHI1418OBABNqBVEmGjVC4TVo0PHm0k/RnJkLezjHhMKEwn1gjPaBhmAODb4oTrjwMixfu84IRvrP7LuCIxLvutIIMKFWEGFaEaHVEaJTRVfw4rvvY3JrHGaK/hujgwn/bnbTjvU+YHOn4PRGMH3ucfjgm28NuXwaLFjYoYKj8fDsmgm1gjhvt1B1HZKq4cF/vgxXMAKzj2UHa3pQpaCyQAZ2fxo2fwo233+aw08F4rlVLwZJOKgIhT8FZ6Dc0nAOoxSotSkKuz+JQyO9eOWjZcKLZaiqVXAw4l0PCwJMqBWEmRR8hdNXJVUU4JoHH4MjnIDVw4Ray4Rq8iRR70nC5E3B4kvD6s+UWho2X4xbVWMQh82bgN2XgN2bEM/ptW0Y6xDb3d2whnvgasvh8dfeAmmpUfUZjYN8KzgaD8+umVAriDOtmwpCVXQUJQ0X33oPbEGqQsFuv1omVCtZpWShhrJwhHKwB7Ow+tOw+FOwBNLcqhgDUjAyIuyTwkJ1BTNoCGWHt/qTJwJzMAd7OI17nn4Omk56vqpQUqvgcMS7HgYEmFArCPKOhFooqjj1iutgDURh8/Iaai0TKg3KVl8CVm8cpNlq9sSExByp45h8SW5VjIHFG4fVQy0mHm3ieRz0OFx90umLweTPwBJIYPHd90HV8iJ1hsuhVnAwHqZdM6FWEOgdXb6DeRlHnXMRbIEYHH6O8h2uwasSx3GSleNLiEFYDMS+BBqCaWHlkH4rt+rFwCHWTY01U1o3pTKK5cdK9JWd7dPli6O+RKjnX3tDyUI1aiVXcDjiXQ8DAkyoFQR5Rwu1f0BC8sQ/wOqPwhnoGbbZ8M5uaH5v31zudk8E1BzeKJz+OFylRpaH0xfhVsUY2L2x/6yhUnBSuQ2j0EqDP456Xxq2YAp/+OPlxhqqEH+p4GDEux4WBJhQKwizqmvQqWybrGFbfxHtc46F2dsNuy/LhFrDaUMHd89CU/ZYtM0/A6lTL0bvWX9C38IrMGPh5Ziz8DJuVYxB9vTLED3pErTOX4imngU4qGuO4VkYRpevIFR/BvZwBr+/4BIm1AqOwcO9aybUCiIucrVVVZRoWretAG/fAlgDOTj9CZYeHEZCNTVHYXLHMHn6TDh9cVindcDl7UKDpxMmbweslMrkj8LkjcIeSsHZkoUtkITN24kD2pIIZ+fihDPPx133PYIPPliKjRs3YWBgAJIkQeeFrwreQUO/a7pedN0KhQIGBwexZs0avPXWW3jwoYcw6+RzEEzPxZRgHBMDKTSGe2H2pDDenYQllIMtlIXFn4ArnERDKIa6I0Ow+5KwumPGoyeGuqmdcAXTmNCy62Udqy8iXL6UOnPKBZcCugRZKZZEYIb+N/Mehw8BJtQKYr0joa7etA3NuRNg9meZUIeRTMm93RDKwBXOwtwcNQJRfBSEEgOthTrDSVi93XCFEpjSlsGUcBJTY7PQe8r5uPb+x/H8kk+wamuREhuEog3lFsuyDEVRoFGB29JGA/WOr8vv82P1IVC+VuXrVSbZfg34btMA/vHWhzjvmlsRPfoPmBqbg0mtWZjc3ahr7oTNH4fJE4HJE8X+HTMFeVKkcGM4i8ZQdjuxUirOrpZW7P4YTMEsaD134aKrAUhQVIkJtfq6yh6fERPqHkP267+wI6F+s2YDjkgcDbMvw4Q6zIRKOYY2bwz2QAoWr5E/avJlUOdNozGUhr2pA4e2ZZA74Uwsuv4OvPrOx9jYryBP+cMltStZ1yCDCkFTmS26sj/eyoP0j9/lV9WIABEpTYjKkyJ6LchVVyHJEgqyIiZQ323YgmdffQsX33A7YseeiiktcTQEE3CGs6j3p1Hnz8LijoqcVgpOo0YpOBToRJbrrgjVEYjDFMzBEUzhTzfdJghVVWUm1GrsLHt4TkyoewjYnnx8R0L9fOUaHBaZA5M3A2eAXb67HGwqQLZOsc+kSG+htAnKIaWJzbimOCYHYph5yvm45/EX8dmKdSgUdUOAmQo+F2UYyYEqNF2GCgkqZEGoRKA/3Xb23k8/w6+rC4HyRIgIVc5vBtQCdIWKfssoFAdBRLdNlvHxN9/hz399GN3zTkZjMCnyjl3tcwSZEolSf7a4YyLI6ZdUl2z+KOoDGbhCGdz28GOAXoSisIVaXT1j786GCXXvcPtV3xJDLrkFdRmfrliNQ7tni4Hc4aOct93MYCtAKsNJYNV2LHK/7XdkhxjwDo0dBbs3AtORrQjPPgl3PfoMvli9AQUNKMoaVEkGaN1bJjI16lQqch6FYj+K8iBkrQhVVUWjQZhJ9FfdClXzIbp2ZJmS257WUqkJ65TOkK6tMgipuE2QHK1tko+iWByApErIaxq+WrsZl91yr1gWmNKSFmumpqaIEIkgYiUFJspx3Z2FavF0wxTIYmJbL5545Q3oWpHXUKumh+zbiTCh7ht+u/22MGJ2JNTIHFgCOdiZUHftDqvAZMIZysLZ2ifSJUxHtuCwtgTOvuI6fPDVSmFvqtCh6BpU0n4TbgUNslRAQR4suXjLqsw6dE0XJEpEWm677QT8x6pFYMfJED0n5b/ylZY1BapG7n2aEJM0YBH5gW0YLBTEMsC7y5bjxLMuwGHx+TA1dcPcHMGElh4hZ0jCEYZXZOfpWVZvBNZwLw6MzMGby74QpM0u36rtJnt0YmOSUPXymkmpwAPdRHQzqfp/Hrc79OgJkaIYbFUjDUYvl4YoDarl/ejGWoyiKigUC9jaP4hNW/uxZes2vPz+UhyRnCfk6axCPJ0t1KG2ZKmCh8tv6LM6KGE/mIHNl4DZl0BdIIXJ03uQOu50PPz0i9jQPyhWQ+mK61Cg6UZdIFofFUQp+gQNskS0pQAkQbZ7dH/xh6sMgfIkaEcypVMky1XSAKk0BpSJVaF7X5WFl0n0FdLc1XUoGrB1MI9rH3wWXUefjv1DSUwMZ4R6ltmTgD2QEev1Vl9SrN3baBIdSMAZTMLmT4DkK/09x+OTFatFT5NVWlKgrdTJKOWOCo4LLwllCtBSRLkZoIqhiehYBwqKiv5CEZv7B7Fx6zZs2LIVG7Zsw8at/di0bUCc66Ako6hqlMUnJg70/bI66vZ909hG94IY7wgF43x0mnCSPKL4J+6S8pkaJ8P/FwgwoYrubJRZoyG1AF3MQKlzK7JqrKMpOqAooqNpKg2+muj8/UUJazdsxjvLvsALb76Hh556Hrfd/zcsvuUuXHTldTjr0itwxqVX4YxF16H3tAtwQGcPzCLCb+cz16EmmLG2v0ZvB1y+KBrDPXCEe1HvNuQBzYEoGqJZnHLF9fhg2deQCzQwiaJ6PAwwAvuEQH9Rx0tvfYgTFv4RU0JxEaRkJl3nYA7jPSmY/CnYw1mYfBFDx9vXBVu4B87mLsw/9TysWbdBkJasSaLEIxGXQXckli9DUyXIUr78FgYGJaxetwlLPvkSj734Km5+6DEsuvU+XHj9HTjzihtw0sVX4YTzFuG4c/6I489bJJ7//sIr8Ic/XoNzrv4LLr7xLlx15wO4/+nn8eJb7+OT5Suwdt0mFAYlw5ogQtVkQJGgyxJ0RRI6w0TsMiRIehGSRik+xj+J1n5p0sGbQGBsEqowOjVjLUyRjZmgmJnRDMywVmgORhYrzUSJT2kM3qoCS79dg7+98BoW3XQX5p1+PjpmHIPmngU4pPsoNAQzcPpSmBDKYVJrH/YPp2BvboVlWivsvm5YfTE4wnSjcVBSJcje1twl3G4WfwYUxWsNZGD1RPG7xExccOut+GLtenE9y+GUNCTwxgjsEwKqYcB+/MUqnHHZ9TiwNQ0b5TMHMjC5k7AG0rAGqDpRBLZQHPWeTtT5UjiovQeX33Antm7th1IcgE56vhRHrsnY0r8NmwcGMKDo+KG/gE++XYPrHvg7zrjqeqQXnIHAzPk4MjMbB3RnMbEjhyndczGRcqzDPbDR8fwp0ezkoRGv06Dn9Hf63IT2XjS0xnBItAfTMrPQNud4zD37Qpx//a14/KW38NnKH1AQsccQVnteklCUZRE/QMF5uiZDk4uCdA3rne+jch8as4Qq3B0CBVojIeuTglFIpFqGohZRUGTkNWDNNhlvLv0aV9zxCJILzkFz6mhMCCZBMnOUe0ZiAY2d82BvnQ1raAYswRkwBXrxm+YUxnsTsIaTcLZl0TC9z4gMDM+AKzRjWNcQK0Fe1bjP/Y7oxOTuo/G/D20XFkJDSw4HTc/iuvsewZbiVnLeQinkIeeL4srnaTIlHFfl24EfGYE9RKAAFDdTlC6wYRC45MZ7cGhHBrbmbljdCZEDTYUUxjd1wRZKwRqIw9bSg8ktadz9t2eg0qxdLCGR1SejqOvo1zS88/lXOHfxXxDqmY8DW5I4sHsGnMEExk3rwHh3BFYSjuiYAWtrH+r9WdT5MhjvTYtGzynoyRTIib/R+/u5kxjnSYlW58/A1tYHV8dMOFpzMFGQXnMX7P4oJrX1YkprD9pmLcAVtz+Ej7/9Af0qUA5+N8ZNw8MDRYY20A+dfjxvAoExSagoBZT82FVBASca8oqG1Ru34NUPl+Gaux5C7qRz8LvuXjQE4rD746LKiIVcOjQDDeRELlp9Uxcs7gjsfrqB0mgIU2pMEmZfDP/jIVWUJCzhLMY3x2HzZ2FncfzKTChCPajzJGEN5uAMpfHbSB+uv/8xbBgsQFMpFaLkvlKpVJbhtudxgBHYJwSMQGCx1EmerHX9Mq64+S40x2bC6Y6iwZ/CxNZeozqRP4V6mmQH0miZdTLe+3yVWF7qL0j4+MvleOb1N3He4hsQys5Go7sNk2hdlgjPHYV5ahdcvhQmtczAxPAM2L05mKalYG4ytKRJU5om+UJXOhBHQyABl2gUIBWHg7xj3qhoVAfW6s7C3JSCtTkJhzct9u3wJLDftDgcoT5MoHNu6sIkfxTpE87Aopv/ipff/TdWkHtYAfr7CygM5AGVRf137D9jlFCNBf/yoDqoAqs25bF0xQ+47t4nMH/hnzAtNgsNvm44/FHY/DEhak+PNpphkkBAMANLMAtTiBRSEmgIkPIOddhu0ei5K5SE2U/unhhsQXLFkDJPFlTmi9Nmhn4d2RnOYdzUbriCKRwZn43bHn0GWyQJFPBBAR6SVCyt9+hQiVB57WfHsYCf7wUCOgXvkLOWhCJKAU1rftiEa+94CEd2z0bdoS1w+ZIiQE5Mwv1UujGOYy+8Bu9/tQ4vL/kMl1x/JyLHnIaDOnNwBaJobEnBHkig3h1FnScmxhpK9XIFknAFUnB4krA1x+H0ZtDgp2UmKspgkGn5OT2WCziUibT86KRi6p4MbO6k2JfLnxL7tnujhqHgTcEkAqtKxgFJpXq6MTU+E7PPuAh/eehJvLNsOTYOSCDb9D/evr0AcJR9ZWwSKkXtaeTuAzblVbzywec4Z/EdCPctwJT22XD6s6BIPSJBRwtZonFY/BG4glQpJgqbLwqzLyp0Pa3BFMwUtRcgy4hcOknxPr1nI7UUTxwTwhk0tmRR39wJSyAKa4gJtRIuY4snKrA+oD2LPz/wJDbkJQwOboGmFIzUUq2kfFSWCWRCHWXD2fD/nCJUUFNK0a9iUNF0rNqQx0U3PohGdxTWpm7YiKS8aZgDPdg/lED6xIU49uxFCKfno4EUltpn4b/dSYz3k6s2CzPpBlMLpGGi+rutEZhC3agPdIGC7KzBuKhWI/4eyMEc7NneyHMmvGe+jHD5kku4/J547s/AStHGoQQswRjq/V2oC3TCFOqElYwH0if2k4ctJWr71otHY5wjic7JLQkEMnNw3tU34pX3PsZAgcx03giBUUGoFAJPydoU+l7eyPoU+qvkkhCtFL2mU/dXkdeBdz/9Cqdedi0O654BiyeBOu/OrKYkSMTasCh39bjz75W/46QajBTtJ+TIyvvY2Xf4vV8iWmcoB+Fy90ZgD5KgPQ0wGYzz9sDe3gtLUxiXXvdnbNy0zgjyoCR+Wqfa1UZdhmIqxEcoEI3SaCg4jda2jPcLg3moJPRAH9RkEY1JIoQipUaszGqQdQUFCtSg/XGrXgzEddZEBK2uFkXhCmMpgFSwAFml/kL5p3T5qRfsXryj1EV+1ruoD20c2IL5py3EFBJ7mBqHzZeD2Uv1V1Oifi5Zm6K2LnmuSK6Qxoid5mEn4QgY48aPx6J9HS+MsY32+eP90rF2tu/y+0Y94MZQBlPa+zD7tIvx5tIVIpApTwHCdK+ImJSiSNEZlFQR4ElY5fN5yBQ5bNxwP8Ot1t+oeUIl4qT207wyujAS5XCRuoII19WhKRq2Dvbjg+XfYNEtd+O3bXHUHeoT6w0T2meAwt133pF21rn4vRHBKpCFxZeG2RuFLWCkIjhaemDy5/Bfv2vB/Asvx0dff2UUbSYZuRJf7vJGLY+IYl1dg0aEKsrukWoS5eNRxpQuBoZ+ScaWooQfBiWs3LgVH331Ld5e+plo7322HO9/8Q3eXLacWxVj8N6nX2PpVyvx9Zr1WLt5G7YOFlFUVMi6LiJrFfJeUEE1uYh8YQAqke5eRYMr6B/Ygm/WbEJ87qlo9KXR0DrDEMXfKVnV7nhySHsvftuWxSkXXo33Pl2B/qKGfEGCKowcY42VFKmITGkjw0crucp3eV/W6B9GBaHuSKY7EizNEmlwlBUNA0Xg029/wHX3PAJ/zzGijBetGUxooWTsGOqmdaMhvOuSSyNCHqPsxhsKDO2+FKy+tHCrWwKUhpSEM5SC3ZtEU3ounl3yMfK6DlnJQ1XywsLYnYFKovdkk9IgStxaMk3EJEyjPGQN2LitiBXrt+GlDz7D7Y+/gFMvvwkzTr8E4Zkn4LedPSL/cFIwikmhGBpaEtyqGIMD2tI4vHsGwr3Hoffkc3HO4ltwz9Mv48X3P8PqDZuRV3VIqoYi5VeWov91EYW7ZyO8yOGkqkQq8ORLS+DNHAMLrYu20hpq7ZLnzs59/BGdaPAlcWA4g9ae43DNnQ9j2bfrIOhTl6EpRSM1sQQh2Tg7kcLeM4Cr9NM1T6g74kpkasx+DItV0RTkFQUbCgoeefFNZBech4Om98ERzMES7IGJLB1a4PenhBuGdDh31mH4veoZAERZLMqvC6XF2rY1EIPN3YFDpudw75MvYn1eRV5RhbA5yXUQVZILb1cbOfroU+Tuo5xjWlal3HrKBCgoOr5evR63P/wU5p11CZrTR2NiOC0Cyyivz0L5foG0ENunRwutPQnCJ9LnVo0YmLwpEXjjCGaEm5MCfQ7umgFPz3FYcN5leOS5V7D8+/XoV8iNbywBkJDLHm/UgVRNZORtyWu44vYHMaWrB+OD0VE3xjS2zYTJnYClOY4JgSQmh5LInXQe7v3Hd/qcAQAAIABJREFUa9i4eYNYRqEAwHyhKCasBCcT6h73qOH9Qtntu6O1OqACX6zdhDMX34RDu3tF7UKbN4P9psVEoe/JXfNEbqjFQ2L1KZibu0ZdZx9tkwG7Nw5XiJRo0qgPkKxgNyYFIzj27EuwZcAo0qxp5dqktBxAsoG7JlQiXPon1s/EqqsRuLRqYx73PPkiEkefgoNbEjiwPSsCyxrbe1HvTWJccxzj3QkxKbNQEAmJSXhTcHq4VTMG49wJjPdShH6uFNFKqXBxIQnoaOrEQeEUZp16Ph57+S2sHyRtoL1z+IrRT0gFAsWigk9XrsXMMy/CeHf7qBtjxjfHjOWyUI9YC24IpsQy2sRQHOcvvh7vf/kNBnVD1lF4ekdxaPCosFCJRCkoqbyRlTowMIBXP/oa8eP+AJuvE+M9XbAGM3CEetEYyqEhkETdEe2om9oBKhA8obUHNq4AU/U3u9OXFMny471x1AVTcLYk0TrrWLy05CMx8umyIXBPIva0DqbpJddduXP89JECJDRaGjCIlNSwXnzvE5xy6bWYEEhhYigDSzOJn3eDNJjHNXVAWDclrVaqr2oja9SbFIFtVHeVW/Vi4GrrgbOtV6Sz1TV3ob65Y3uBeVfrHJiakyLn8+CWFBZceCXe/ZwKKOz5Rtat+B65ixUFA0UV9z3zMg7r7qn6e2xPJ+Gulh7YghlDnSmQEv2fUtcmd/TB7O5EYsE5ePadZRige4xAKY7e3NWaJ1SaBNJgqKk0KJK9Aaz8/gf87annMC06B3Z3F+rcnXC2UYRdAnZfWgyUTk8XGgNxTKYbjHJFKbTdVz2uzT3t1GPl83SjUvT0OE8MplAKkztzOG3RYny/eYsQD1cLBfFI/UIVfiUjalelQKOfjov0d4XCEqnoAbB2SxEP//MNJI4/DdapbbD7MzC743CFs2gIZ2ERknJxUS2oTJq0TEAiHlRBiNJ2zIEIt2rGgNLdfHHYgwmRJ04Fwx2+bliaOzDeQ1ZrLyiS3Dy1E5P8Mcw49UI886+3UVAMoUojmMboST/rTzv0L5reG0RM2QUUhKNjxbrN+P25i0TBBorwtXtjIv+znJO+8wjf6h+TzJRnT5HKlGZIhOqLG5NKKghAVZ78SXhzx+CG+/6OtRu2CT1DnRaXtwcsGAUplB2yNHaAsqae1gyhElmW245rpRQ0QoMnhWrT+tfnK9bizMv/goPa+kbdTHCskOZuf2cwjXGU8O5NwNWSRmjGfLz2748gCS3Und97RKVFEvcukyqNhDTzomgluQC9KGHdpgKuuetxNMXnY3JLL6xULHqUBY/w79k7cmqZdRLueuJFbCnSejzRpIx8gUr7/fJW9p7RY6FQwJIlSzCxtUeoGFmmdYhi5XZSMaI13cAoyzLwpeB0UyH1LMZ7O7D/9BgWXvVnLP3sa4EFFXCnCQqN54qiQiqqKBZ+Daq/jPtIfaImCLXcKQmkHcnUWDct5zZp+PjzrzH3lHNFMrWT5f1GJSFQ0nmdJ26oTvljOOPK67G2vx+ybujz7uxGIv6k21Qpld4il4YmG0EjJPK9dbCA6+/5m4j+tHmiIuePrE0moL0joNGGm9OXwOHdM3HrI89gW1GGqsmQpUHqUTvrbtvfo3GLtvKYRc+JVGee/Sc43F1weqNoCJJ3I2EsN5GFN4omcZR73+BJo54KsLdnYfJ3wenpwLFnXYa33l8qUmvEMjPdnNRIMoB0DWt4qwlCJXyNWYzyo3xTym2itVKS/Hr738uQnHsiXE0doMAje2j2qOqco+lG26ffQnKP3iQO7ia90w489+6HInCEapruaqMIQ1HXsvQBGuiKhQI0RRXrOg89/wp+25mFyd0JWziF/3tECyZMH31rXfuE+yga6PcUB5MniQO7jsIB4STue+oFDNJkjIQLdjeJozVUsWBodLpy9gG9evLtj/HbjiwmUroXyfqRlCl5RITwy+iZxBChTvCnMe7IDpgCCTR2zRJR8aZpccRmL8DbH34q7loR/kKQFql0z67u4tp4v6YIlTooDYZEpBSERCQ7KKt49tU30NF3NOzT2tEQyooI3v2aR0/H3NMBYFR/PpgVKSmTgglkjz8VG/JFIfsmK1RwauebJtIXjDvV8GoYOadksf5jyVIc1JaAqXk6rKEUfuPuxKTIDNQ1T+cJ2Rgm0R3vIQtVcmlOYv+2PrTPWoCXKNdZkqDKhlDBznsdxDhVtlJpvCq3dXkFud+fgQZ/DHXNUbjCPaKOKq2p7njc0fC8MZAS2RUmbwLjPCR1SAFMfXC5I2jvPRZP/WsJthbIcqfgLR0o1raMYU0RKs3yaCPFDRoY6fHhZ19E11ELYJk2HY5QTqQx1DXHhBj1aOiQ/Bt+PDEiUQcKHmtomo4Hn/6nCPygfGNSONrlRp43CoLQdKiUoyqRJJqKpZ9/isj802Ge1mHkkIazqPNE4WohHWYqjPDjY/PrsYmH1ZuC2ZOCK9SLCaEs5px+MZZ/vwFFCuDYzUbjFTUi1fLYRR8fUGQsvvM+7B9KYnwTiZP0iAAlErQfXX2MIt9jMDVH0RDKiQo2Zk8cFgoODSRhmtaBcN9xIkVpW1E1JAtrXEGpZgiVOiU1IlKyUKk999xzaOuZh8ZQSujw1vlJgi4roi0pB2p0dc6xOZj99BrafGlRZ9Idm4kvv1sLit5VFEkoYu1ybKMocBLwpgFQB/JSERu2bMaiq69Egycm0qisvgzq3AljbTYQQUMgwv2HJxSiD7hIKL6JyjOSdySDQzpm4Lp7/46BXXY4yjwwxqodxy36OI1bsibhpff+janJecKbZgvkRHm1BoqKHWWYU2Uu0gmmCjdOTxROTzec3m6YgynUE6m6p6Nr7ol4/MVXsC1flnrcDbBV/qeaIFRhYJRUbIhQKc7u+bf/jY45C+D0xsSiviEsbQhMk/i0YxR2ztF2s+3N77GFe1DvjuO0CxaDlrIkTRbCDLtbeyHbVaKAXoWUWmT0F4p45s1/Y2pi/o/Wrag6kLj5hRA5q2btzfUZjd8hMRGK+p5Eet/umIjSdff8Hu+tI61nCapEAXEkd0kpWqS0ReL7O/eYEMECeXy/diPmn3E5rKEejCeNX3cUE0dblC9NDqgAgBiPkyAcHZRmJsT4SVwjg/HBGMb7piM85zj87bnXRKYGJFqfVqBrBVHLRyzQCGCrnE1rpdoM9UFZJllBDXlZxperf0DquNNhbuqCKzT6tDFH46A0VL/JGsqKvNA77n9G5B8XaUAT4YG7vtnIMUchSxSdqWsy1m3px8Krb0VjiAOPhuq6jOb9ECFYiPBae2BuJs+FEZl70d1Pi+pDGlWnIQ9aKXiybJXuukcWsHVrHpde91c0tM3EuJZekSPfMIby4PdvpTiFGP7H0w1rWwKOYBdmnHwOXl/yBZX8QTHfD10voij1izrG21NWdw1qVfylJixUQkpXVTED/OLb1Zix4AyxZmoihZpR5iIZzQPTUPw2Ktj+u/g8fLhspQizl3VZaIXuJshX3ItkL1BpNklV8M6yz+FNzwMJ7Q/FOfE+RjeODcEM6qZ2GgGPHmOdc/yRnTgifTy+WrESikrLDjRl05EfpHSaX9okKLKOh596DQd1z8FvSPErnIPdPfpcvru6N/YP5mBvTogiF7bWJPab1oLGQDcSx56Gz5Z/B4kCfjVS2abJCkmI/hKm1fH32iFUAF+vWoM/XHwFbFNbYAsmYabamKMs1HxXHZDfNwZtiy+GzqNPw/pNRZDMoEYxvkLxaPc3FN2QpONQ1IGrb78P+1OB5tHoYuMJ5pBPkkia1CDUDKg4gyuYNnTBPXHc8cDfS8sJlPehojA48CuMKVlMBt/98Cs0pY/G/3N3oqGtD7bmsUOojuY4Gn0ZoUBmDsRg8kdg9XfD6u3EqRdejS9WrRfqVMINJSqGqcZ9vvvbfMT/WhOESq6UddsGcPnNd+GAcByTO0igPIb93N1wjLJkaCbO3Vs7dn8Mx11wJQYGFOgFEsNXhOhRSedt1zcUrcED6NeAyLyTMDGcgskXKxVW3v0x+ZqMbXzI5WujogykV0sye96EcP9aPXHMOfk8/LBNgpDNoyUFKvtmaBTssi+KnGkdWLlqI7qPPhn/3dQGV0sv7J5yAe/RjzdZ/bQubXZH4WjJCAOp3hcVeeAHtmZx6Y1/xfotRaiyBoVSlDRVCLPsEtQq+UNNEKqi6XjklbdxRHQGDorMgS2cRp27C65wVETH8YA3+m/A8jVuCCVwxe0PoDhIASFknRKp6iLPfpf3FFmwVJJNB5at3ICD21JwhVOo80WZUNmi/UWLlgi0QcRqJAWx2slKDaRBhOpNzcf7n680osyF2IMiitHvPCTJ6KGitpGmob+/iGPOvQT13g6RW+3wjS6lpPI9u7NHeziDOm8M9RT5G8qAFNDqPXE4SWg/kEFTbC6efP51FAYoQIn+E3f5Lm/xavlDVREqQWagVwrpLSlSfbN6LbqPOUMISZt9CfymOQJnOIHGYBfsXk5v2FmHHa3vTWpN4a4nnoOUlwFVgazmjaCkXQslGdUTVB2DMvDgP17HlJYUbIE4LKGxYxGM1v4wHL+LLKnGcBZ2X1JYqQa5GlbrEZG5ePzld8U6KtSCiE4dJHnC3YzwCv1VUaEUdZy7+AbYQhGYiEz82V8k9+H4vcNxjHGebthas3C25jCeCpN4k2gI96K+KQ5zsAcuTwzxmSfi62++h67q6B/YStNmI/hLREobABtR07sBe5j/VFWESpo3eWkAkIuUsCU65Xf9Ev5w9U1jpqMNR2eu5WMcPD2Lx194vRy2K1y+ClkGtEC6q00UiFZByQ1nXvUXNIZTsAbTRjk/ttD43tqHPjC5bQYW3/N30bcK+X5hAlBBcvKq7WqTdUUQqpqX8ee774fZ2y6CK12Uj7oP5zJavmsKpEV5PWcggdOvvBnfb+6HKsosGup4RgCYge6Oghm7wns4368qQqUsLqrwTrW0VFkGWft3PvECDm4fO66Q0XJTVOp3HNbdh2dffbekdq9ChSL+7ZZQyV2kq2L99OiFfxTLBBQtbOagJB7A95HAJoRyOP+6O7G1qEKWSIqQAuW0UunAnQ/llDstREZkHbc8+Cgsvg4RIDeWLNTdjQ/1vjhcbb1CoOewjhxue+gJoUpFGgTljSzT8uvyY/lvI/lYVYRKczqFZm8iWBr4cPl36Jx7EuxuduvurgOOpb8dGZ+Nl9/9/+29h3tc1bU2/jd8v+d77g1Y1vSRZAPhy71JCNjW9JFkyyrTZyRXwBjbVNNCJ6GXQOiEEkog1DiQEAgBTAudkEAggAOhGPeiNjOnvr9n7aOxDVhjWT46OtKs4dmMPGdmzpz37L3fvdZe613vGRFGMpEpudeocszIFgG9mQh1y1AZieNOhSfUDdo6cHFAGxPqARJqQySLk39+Lbb0D0EXcxft6xu1U0ea2CnVS9ScVIHf/OFpuKMd8Mby8IVrx+Vbbc7yxHIg7V8qZzf9iFZ0LF6Fdz76j/BYVvTc98SW1Kfs8rAVoQqwqMSRpuKr7f0479pbcUgsB3+ExRuqdcBaOjYneyxefvdDQai6JI+aUOkDmwdLiOaPgS+SEi4lTwtPYLXUd8bjWv3hLJafezk27ugfjvgwCLXa8k64fMklrAKPPrNWECrlofrCPM+JexSjAKUEfC09IPWypmBCCLFs3EnShKqQbyQC3beAhvU0aytC1akqCKU2KAqeeu0tBHPHoiFCuV8LeCV9gCvp8ZhMJuI75+SW4ZV3/7WLUFUQqe7bQqUPbC8raE4sRGOcUmbSINWlibgGPufUiUonQj3+3CuwcYexf2q4fA3VpJGmc9qoAEkTKsCa51+GM9SOhtYeeEO8tUVjwx3qgr8lLwqdOEI5IcAyO7Mcf3j+1V3FBsgqJULdm8U6Eu5WvG4rQhXh0ZSftW0bVl92DRrCXXCFCvBGubYpT8LGJCws1L/ttlB37aEqu/dXvjNwdKr4oaBP0TG7qwczW/OoCyTgJI1RXqgwBgfQByiF5oQLr8amnYPDLl9jD7VKbzSi0qlWqqzj8bWvoD7QhoZWqjjDhCrGY7gbjkA3nNEe1IcLcIYKOHTuYpxy3mXYvHmzGN5UB5se5XJZEOt3xvwEvTDhhEobyrs2lakaiAY8vvYt/CS1TGg9+lt74J6CdQJ5Ih8bmTXnyOX7T9FPoFACggaFSrdVS5sROWwqtpUVxHqWwR9Oibw3lq0c2z0Ya9/1DweBkR4uEREV1CahBG84LbRsXSSgEM/DFcmKnMTpwSTqQ2mQlbK35gzTewui0d/U3FGqh1yAI5KGhyT94nkhGdgUzcNH0n503gMg0O98NpTByvOvEhYq6URTRySJy2ouX8NCJeku4NG/vCCCkmgP1csuX3FvSDzfHUqJPVRvxCjXSKIaP5y/EM+88b4Y6nJxUOgo67ImtqMniD+/c9oJI9S95g/JCmQJOOnCa4VweR1pPUbTcIc6zR0EZg4o/i5L701zfg9CVUkliQiVVBu+07f3eIG2EjRsKUloXXg8fEESdMjCE2GL4DsEMY79mQQSiExJEIHk+4hgiUzpN7gCnYarL5pCYzwjUptmtuUxo5WIhsTov9vo8zTR+iNZQdD0vaKFUnDFspjW3IWDjmpH/axONISzmBnNg4KIzLxmcvmuOO9KsYe6i1C1URAq7aFqwCN/XgsPBSXRYoMJtfq9CaVwws+uwyBVYaQ0GrkkoqWp6pRdHhNCqHuGPFeAoNckScWbf/8Yh5OCTSgDh1DP6IY3WkMalyYPeDMnDzt8FxOquYRg5T0lq3S3hF8KjjlEriTll8KMeAaN0RT84W74gl3wBjpFAQzn7Hb4Q4kRWhK+UGJ3o0CWYDe8pL7TWoA3nhPSpCRzR8RXsYrNvGYmVOv6I1muh8VSePqvb4ugfo30ClRNZCBVeGSinyeMUOnCiUQrFe3J7buZRBwuvg7uo9rEypVccm4qUBtjRRszJ4HJ/F1MqNZNYGb3E8PKTIv6mFQOjaxJIjuyMl2RHJxho3liBfhaFsAT64E7ahyj499uznAWjlAW9Ezv9ZMebrxXfMbR3C1ql1I9Tg+lSAWTwvVL5zLzuphQreuPolRnsAtLTjsPWwZKKJbLkMtU47iag91airWcUCskWiHUPVUvnvv7x5gZ6cahrTl4Qgm4Qkm4oxk4uVi4qZOAmROK1d/FhGrdBGb2vSX3riuQFJai2E8NZ+BqTsAxpwv1gQzckR54YwtEc4ULqA9kRXNHCthbIxJ1RWjvNAdPlD7bC2coh/pAGjNbetAYzWFGa6/YR60nAo+kRcFrM6+LCdW6/uii4uTxLA5vS+NPr7wNyj7VNKryYx+fr+WEWiFSeq4EIxHJUtTWmb+8Ewcf1YaGlgycVHg2nETdnE6uecpu4F0LCiZU6yYwM4mHvouqthCpVty+9bM7QXVFqSZoa89yZFecgePPvRynXnwdzrj8Rpzzi1/hvGtvx2mXXrfXduYVN2D1pdfhlIt/IZ7p7xMuuAKLT7sA/zN/KRxHdcA5pxtNbb0gMXbaV/WaHNnNhGpdfyTxfHeMNJS7cOrl12E7FU2ljWitZK0ZWuVsE0KoFVJVFIqKAyRZxkcff4LQolU4tHsxDp41VwQoNMSzOOioDjTMXbhrQjV7kPP3WTcgzMCaCXVy3a897zkFIpH71dlMVaIyaIhmEV2yGhfduQaffvkViuVSpTyGKNUlq1Rgmv6jIJ+RG5XwqxynvOS+0hCefX8DTrnyTvw4eayIGHWEqOZmGp6IudtHTKjW9UdSUPIJMf0OtCxagTc+/AQlknvUSPLRHg/LCZW83QotLFQqv0VGu4ohHbhzzZ/xg47FTJxsjVbtA0yo1k1ge5KhKX/HciIdprGlAPeseVh86vl44Y13USqb7LKjPTVVwvad/bjrkT8ill8B9+wEXAGykM3FjwnVXDyr9TN3KIGGth7896wOHN55NG597M8okuSoXuPSg6IQAwkdy0UhhP/ltn6svux6zGwxN2Cg2s3hY9YNBDOxZkKdnPeN+oCRqkTRtkmkVpyF59/+EAPDsrbm2hc0ySqQFBUb+yWsefFd/LB9ETwBKr9mrjoWE6p1/ZEI1R1Noz6cRkNLAadceiPWb+uDrlAdKXs8JsRCFUFZ9D/JcPG89dF/0LroBPg4+KiqdWYmMU3W72JCtW4CM72PRHNwhVL4flsOa158EwMqUJI1yNVUrsYyT1L2gCwJWTraVNomAT+95k7MiFKwo7nCDkyo1vVHD7ntA11omLdQiOdHF6wUovnS8NbhWLqK2Z+xnlApn1m4fEkpRBbV7R/5yyv4f/N6Te/spk8I7I6dcMJnQrVuAjN9/ESzmD5rPtKrzgIJxym0phaarGZPaySVq0JVFPT394NI9fUPv0AkvwKeQNLUPsyEamV/TKJ+TgcO6Toa9cE0ZkTTePjPL6Fsn6wZTAihklKcTqsKTcVAWRGRfA3xgnAJmT6ImQRNnUAm+v4woVo5gZl7Ln+MZACzuPLOByBBR7nYD+gqFFkxXY9VUTVopKYjDYlykOvWb0XvyReggYOSJu184I+QhdqJxvbFqA/n4A0mcfbVt2CnfbZQrSdUsRYVMQOSIFSq0tC97DS4SMmECz5P2s5uFdEyoZpLclbdNzoP7aHObCvg4WdeRJlk46R+EUdRLpkrcC4CH3VAKQ8ByqAIWtmwrQ+rL7ke/pC5qmtsoVrXHxuiSTiDnXBFC5g+LNPYsfQkrO/jPVRAKQG6jNc/+BT/07kY9ZTwzdYkE+o++gATqnUTmNlk6wyl4Ax345EXXkFJpfFfhCQNQKLkfBMfRKhktCh0Dm0QujqEL7Zux9nX3g7/sHawWdfGhGphf2zJoS7cDW9rj9hDpUIHP5y3EK99vPUbmgaka1Bp5Pq38mG9y5dScanHU+6QLuPePz6HxpYeOIRgubk5YmYNGv4eCwcNE+qUXVR5SFShNYcbHlqDolaGIvdDhwRJrS4mv78TIk0vou6LJkEqbRfn+GzLdiw962L42EKdtP3LQ4QaSaJp/kKRW0yEOiOcxV1/fFN0kQqJ0j9IgY/+XTuEqpagqApOvvR6uMNUVJZcMUyoTN7VyZst1Or42Ln/kAeKpOOOO/tiFDUdpeKA2EPVxQp7f2mz+vtFPVJdhSYXhVjEmx9+hmhuOe+h7mPBauf+44pmMD2SQuO8BSJanKQl3bO6sPzCm3cRakV9j4Ld6EGkauXDcgvVuEiyUCX0lyTEF58sah16wilQNQE731D+bRM/mTOhTvw9GOs4cIfS8IZSmJNYjNfe+9ioGKJQ8FC1ctxjnA41DQoVn9aAQRm49s6H8aO5C+APmzvHsMvXuv7ojmTgokIp8TycgQSa4gW4ZnchUDgJpVJpl5uXegwVHp+Ix4QQKskvUoTvZxu34zDKKYr2Dluo5uaIjXXg8+esGyT7izUTqn3vzb7uJRFqY2sPfM2dQiXp0407IJEU6zjwKaXkkZVCrt+X/74O8Z5VmBEtwBM0d45hQrWuP3ojGXhjWWGdOgNG9SAqyXfYvEX47LPPBH9WLFIjHcta65R+wMQQKpnhmoYX3/kQrlAOjtgiUV2GhR2s65z7mvzsepwJdfL2EQ8VEm8pYNqcDnia23HxLXfjH//+HCWN9HrNfNC3KRiUFfz1/U+w6Iyf43s/aoUrnIfX5KLyTKhW9kfDu0Cl+cT2IJXmi2RAZd3Wrl0rApMq5UCt3jut9N4JI1RV1fDQ0y+ibk4G9bFF8IaT8FN5pUns4+ffPv6Diwl1/DEet37cUsBB4SQcsQwOae+B44gQVp17Id54733IIoikMi0d2DPR886B7Xj0qT+hbeGx+P8On4Pvdx+DOlHmLWfqHMOEal1/JGvUGzQK089o7YEnkgZFjlOJz4cfflgEIpGYR8VKPbBeNLZPTwChGjqbVHBn9dU3YmZ7D0Sdu0heVKAYt8HMRG3qRDJR94kJ1boJzPx7nNk1xkkCkCbIGS09onzbKRf+Ejf8eg1+95e38ORL72HNs2+Lv59Y+w4eX/vqXtuTL7+JJ154Fb9//hU8+fIb+ONLb+C3Tz6L6+5+CPNXXYDDO5YI9bWGaA5+yoMV+6e8h2r+fZ34PkmlP0UYkioJoRBKxNKgQdfJ6W/dY8IIlaTHVvz8KjS2kk88Db8g1Im/MVOxs02la2JCncxj5JuE6g4mBck1UfWZQAe8oU40RBPwR6i8W7doxt9J+MLfbQ1RslgScAe64A+n0BTLimd3c5f4XlcgIRaRjfHhxbrJAUk0rthCtUd/XHbhVRiQFVFlSJZkVAiVXP9WPiaGUKFie1lGz2nnwhNJCLOdCJVWkVNp8udrMf9+MqGaj6ll/TScEQXGyVKkQuNuKhgdTIpnZyyL+khapEW44jl423rgbi3AQfq/4dxemzPWC0e0RxyrCxnvoX+7Yj3CMvVHcyISlK6PzkP7blTk3MzrZUI1F8+x3pvkCT/F1oFBQJOhSLKwVslCrQ1C1RVs7B/E/GUnwhnqElFb/rDhlhkroPw5e3Ts8b4PTKiT9z4TkXpCKUGmgtyG3bAeQaxpeEStUirhmIcnlIUzkIKjOQF3KLnX5o2k4Y9m4I+RrGEaLrJWg0lQCp7xnSm4Akm4AxSfkQVZqkyok7f/VJtb2paeiI07+oRYkKaokCjuFaSSNNUtVBHhq+DL7TsQ6T1GECpFavlCWbZQ2ULfp/XAhDqJJ8RhQjVcvWk0xPKiEbk2hrJoCufQGMrBNycFz+yE+HtmNI/GUPdem6+5A/5AJ5rCCTSRgk6EPtONhlC3IFTap6UmLFVyKxPZslLSPsdYNeKy67Fw73FYv3W7sFBJKIR2TmvDQqVMa03G51u3oTm7CG7aK4nlmVCZTEc10JlQJy+hGls6GWEx7umCJcvVGUnCFd2jxVLwtGTgbcnCFcnttTkjOTgyor/NAAAgAElEQVTCGTjCWbiieXjiPfDECnBHje0jskiJQMm1TJapQajmZhKwy9ce/XF2Zgk+27BR7KESodbOHipZqKqGdV9vxezUIrjCCaF84Q2ZG31n15UU/64DG4BMqAeG30T2PyJUarR/KqJ8h6NuiVDd0TTcsTQ8sQw88Yx4dkVITD8FdyS/1+aJ9cAdLcA1fNxDwg3RgngvnYMsXyJRcvuOx/4pYcmEao/+eGTqaPx7/cbhoiu6cPaK3GaqFWrhYwKCkgC62o++3IJZqcVwhrpF2TYvKZiMQxTeRE4gfG7zBxsTqvmYcj8dO6ZMqGPHzsx+95PUMqxbvwmgCkMwCFWohYyLDNfIDG09oRoiJvi4QqjBbpCCijuQYkJlt+8+3b5MqPaYwMycDCfzdzGh2qM//jh5LNZ9tQlQqIqZEY4kCHXKi+MPE+q69dvQnDlaWKhucvmQW4Yt1H0SymSefMz47Uyo9pjAzLiXU+E7mFDt0R+PIAt1mFB1TRUu39ohVBX4bONOhPLL4AonQVUEPGyhMpmOwkJnQrXHBDYVyNCMa2BCtUd/nJVbgU83bBEuX11VdhPqlHf5kvtZAz7fMoDYghXwRNOgwsNGUBIHJpkxyKfydzCh2mMCm8p9bH+ujQnVHv0xtOAkfLFlB6BRyT7DQhXe3pogVB34ctsQWhavgi+WEUFJvlCG81BHYaHtz2Cfiu9lQrXHBDYV+9ZYrokJ1R79Mbp4NdZv7wd0aTehijKh41Eb0E5BSdChC3kooHfZapGHWh/LwBUkPV973JyxDCz+jDX3zg6ESoIElJYhVHiCKZGSIVI/Aim4mjNoiPXCE82jPpxGfSSDugg95+CIkpQeNzMxmB7KYVowI+QHnbEeuOK9cFIqTZDSc3LiHrmC3WiIp+GLJuCN0P0yr68yoZqH5b7uC+USk0iH8T6SryTlLSMFK3vcKuyUVMiqYgQlFUvCE0qyB1Y+rI/yHSZUVQZOPOsS+GIpOFuo46dFTte+QOXj1nVgO2JtB0KlnEZD2s4Qd2+I5cRA91KOZaQXjuY0qAByU0sOh87NoTHajcYoibdnuJmMAQnkk3C+P5ISzRsisXwS1qc5JQVfLIfGVspNNXJcfazla+qCwso5QuQx77p/BqGKkm6hNJafcQ6GSDOIIpF0DUrJIFQRmGQho04YoWoycOl1d8IbScIRJxWTDBOqiStnKzu6leeyA6GS+k5Fk9YY5LRqzsBDUeqxhfCGspgRSSPWuxwnXnAZLr3pdlzxq/tw+a9+w81EDC677T5cduu9uPTWe8XzJTffjQt/eQfOuPwGxBadgkNbCnAFuuEOp4WiUl0oLQIgzeyvbKFO1AJ/mFBFoYUMLrjyOpSIS4k8KW1GKot/iH9PdUIl6UFVAu5++Ck4Ax2YTmWYIiyOb+ZAn6rfZQ9CTQuXL7mcDNUfo2qKs7kbdT+Zj1DPKtz1xFp8smEHNuzoR/9QEf1lBX3cTMVgZ0nGt9v2oTI27hzEGx+vx0U33YujkktEeTdvSwGOeA/cJi9amVAtJNRh8jTGHQWw7m633fsQSuTtHdaK1zRF1JqpDULVFWgK8Nxr/4Qz0AnaQ/WT/qaoNmHhDTJ5cE1VErPTddmBUGlAC0wofzpoVDShvZyZLXksOPV8/PHVd7GlpKGoAJpGy2YdiixDkiRuJmKgaRqoiUl0DytEVTWh5bqtqOChZ15G25ITcPCRbXDHcmhoKZjq8mRCtXC+/g6h7j73My+8jrJExqkGVaFS40YfsHgLFRPi8oVOMw3w8Vd9osC4u60AX3S4CDCTnKkD3k5kaMZvsRuhGq7fDGa29iK84EQ8/uxabC8ZBY5LJdkIjJCo8LERLEHuKG4mYaCpAldNkUG5hxj+tyqVUB7YClWVQEJ0Dzy9FkemlsAZ7ALvoe4mITPGo5XfsacGdGVRWwlU+uTTDVBoD1VVocplUWmmRAvZPRZaVvw5AYRKiwedFu3YJgGzs0vgi1OEbw4+tlCZTPexoLIDobpFPzWCYVwkwh7L45BIEtfccT9KigJZVXfHQpDPSYTvU4FGGvHcTMOAJpG9NhVQhlAqF6FAx9b+flx9+z1oCHcLj4KZJMAWqnUE7Y1lRe3shlAO3mAWYhzGc/hxchkGBqXhrqALUtWhQ9aHNX2tYNLhc1hPqMMTDNUAGAJwzNkXwB/sMMiUCZUJdRIQqitCbkPSnu7E9FBSlBYLdC3AJ+s+s3Do8qlGRoCIVhFFpkWtEa2I19/5G+ZklsFr8hzDhGodobpasnCEkpgRyMMbyMMRzYsKRQvPunzkrmDxkYkhVFpAqrog1F8//ic0huaLNISKGW/mCpK/y7oObwXWdrBQnWHKQ02iMZqAI5zCQbO7sfLcK1CWrC0VZfFcMYlORx4wZbjINHkIivjP+q+x8MzL4SNP2D4WbftznAnVuvmlXpTzS6MxkIc/1AN3Sw/qm+fjhgefsk3fnABC1aGTn1tVUVI0/OOz9Tg8loA72C0SdfenM/N7revMdsHaDoRaH8zC2dyJpngS/rYeHDS7Cxf98i4q88sPWyBgWKjysLddlfqxZWcfTrzsVrZQTVxMWD0n1JM3KJwVhOoL5+FpzcEf7sDrH3xpi15HP8J6QhWJtyp0VYaiqNjUX0LrguXwUqFxEQZdeyRhdceczOezA6F6Yr1wBbqEy9cTz8ERyuDCX94ltkptM7Jr+ocQoaoiIIXWOLoyKAj1pMtvhW+X0o458wxbqObgOJo5yUkF44lQQwXx7G5JIbJgGTZuK9umt08MoUKFJpVAS/r+oorTr7gBDfEUfFEWxx9Nx6rl99iBUL3xBfCTQk+oE7RqdscKOPaMn0GiMEN+2ACB3Raq4YQv4/OvN2DBGZeiIc5pM5N1/vDG8nA0p9AU6YUznIanNYnVV1yHIZJIssljgghVgVIcpI1UlMoafv34M2iam4GXLVRT93cm68Cp9rvtQKjTmtPDsoJZsYfqiuYwe34BGzZuscmwrvWfYRBqWQMkVQX0Et7/6GOECitEvnu1/rW/x9hCtc5CbWjpwfRZCcyILQRZqw3tGdy+5kkoRavlG0YeX5YTKl26kRukQStRdQAVb7y/DrHCSvhCaaGJStqojfG8KDpOYsjTjmxnopnEex/7O0lVe78dCLUxTpJ2SdEnSXqwflYnjsqvws/vfBSSXkZJKYl0DVo3l2WF1o2GJhp1fm6mYUB71rICkX+4J6z0uiT1QdOGoKpllDTgl/f8AYe3HQNP0FwCYEI1F89qY98bSokFUeO8YzFtdhKxnpV4671/AnpxZIaz+MiEEKoser8GKCRgrOCLzX1YfvYV8AaTIDJ1B5MgGTdKmieAK5NXNbD5mHUdeyKxtgOh0l4/9cnKws8xp1v00/nLz8Jf3/0H+mVj/65Ylg0NB0UX2xum5V9yLquRzzu8OiF1HGq7mFon9SQJqlJGsVzGK+9+iGD6WBx0RKchIGPi4pQJ1cJ5J5yBY3Y33JEezGhdhKVnXIzPN2wSHgiLeXPE000MoQqhFBWk6UsRv0MqcOv9v8ch8RyaWgqijJtjTpd4djUn0GByIMFEEgKf+8AGoD0I1bgGoSlKguvD8oONkQyOPu1CPP/Wh+hXgBJJoZFAUpmVksZLHUrXFKiKDI3KV+nk3iUyJUlCYKis4plX3kTquFPgau6Am+YW3kOdtN6+RtpDnZOAK5DBj7qOxnX3PIp+GmRaTQclGcIx1PFJIopWlWSxvvmPfyHUs1Lko85s6xV17sgCqDtyPsjFxkR0YEQ0VfCzA6FSySjakvCFM8KTQhZrU0sPGmM5fL+1gNSKc3DXmmfxyVc70F/UQdt4wj2p6ZC5mYYBbR1Ragwpt9IzNXptSFHx3idf4sZ7Hkb6+NPhnDUXznASdeEkHEHDVW/WeGAL1cp5iXKIc/CFUgjlluOlv3+EEu2n6NQD7PGw3kLVdSFoTXmo5bKxslAUBYNDRZxwyY046Ih5Yh+V3L2k0zh9VoewWs0aAPw9Vg4A889lB0Ktn90pyLSy0KsIkpBA/rRZHag7ch4Ob80hveKnOOvym3HVr+7HLff/Drf99vfcTMTg2rsfxNV3PYBr7v4tfnH3b3HlHffhohtvx5lXXo/OY06GZ047XMEEnJEsGuctQNM8Wpibm0nAhGr+GB9pjnZSfdtIHjMjKSw/5zJsHpIwJMq0Wa3YOzJ5W06o9FOMKhGktgjIMu0z0RJewmMvvze8h0oVPBKCUMX+aaW6h4l7HyPdNH7dugEyFqztQKiGizchSrdR0BwRqTuQhDuUgiueRtP8BfDE0ph2VDtczVRcPIeGcAr+UJKbiRg0xXOY0ZoXbWZbQTxToXFXoBOO4Hx4WvNwtS3Cf81JoT6YhDfQBW+ILdSxjDs7fIZyUN2hDH7Qlscjz7wkPBNlVRaqWCNTnLVHJohQVVHWigh1cHDQqL6hKfi8T0bmhHOFSV8fSMFDWo0UmBQ2dxDYoXPwbxgbcduBUBtieRE4R4s+sY9KC75wxohMj6cxPdgt0ml8rQX44gW4Izl4Inl4o9zMxMAZyqA+mIIjmIaTJttIbrhl4YqmMC2YRF0kB2esRwg6NNKixuTFOVuoYxvH1ee/jDCsPMHULkla8lY2tC6Eo7kbyeNPx+dbdoCC52VFgSIC0qwlzpHONiGEOtKPoWDIR59aix/M60F9KAd360I4Qwk0kegDW6eMQSQLOxAq98XxmEQn53cyoZp/38jjQwRKsQp7eoM8sTxmtOVxzxNPkzQQoMtQFVUQ60icYvXrtiJUslg3D0gonHI+3KE0fK298ETT8IS7mEx4QSH6ABOq+RMYLxDGjikT6tixG6nfkdeHUtFExkc0C8r4IHJ1zO5EfvWF2FhUoFBEN2WJiCA/q2lz5PPZilAp4lfSgQf+9AIOn5uHM9CNRtoHYZcvLyiGFxRMqOZPYCNNbPz6vrFmQt03Rvvbjyg9pn42aWVnRGwCFRanjA/aO735t0+AQlllRQUVlqciqBpZYjZ52IxQVZSlMr7a3o+jz7wIM1vScIUT8FKKAltojAG7fLkP2GweYEI1n1ANQR+DTEnkR7h/w2kcfdrP8OGn60WaJaWhUXYIZYvYiE8notpMlaWELkFTSihpKn771HOILlyBg2e1o97kosBMzuYPAqswZQt18t47q/qIledhQjW/P1bcvbR/KmQ+mxM4IrMCDzz+HOSyDrlM4h2AqlKON4l42KcOsb0sVErQ1ctQdAVf7OjHsvMvw2Gdi5lQbbYqt3LC+va5mFDNn8C+jTH/e/QYM6GOHqvR9iuySIlIHbO7cMjchaC872WX3IrPNvQJ5Q6iCVnSIMmasFAlIRBUxVCz8JCtCJXSc4X5rhFiRbz17nsIdi9EA6XQzM7AOyuFQyIF+INJuALdcFEJH5MTtUd70/l95g+k0WBqZ0KlYArKR6UoRRIQoH0f0ShXNZqFm5u5GIRSAuuKsAb1H/rbwN+a/smEaj7OrmCHiJtxibk9jR+0pvHcW/8YLqpiITuO4VS2IlSSDlOJUTUJulzCQLGMW+7/PTxHzhMKGTRQaNUys7VHiJO7SE0pRnJU5t9U/k57YmpnQqXKM5SjSitsCqgwJvqM0KR2RyhXMsXNRAw8tKAODbdgajg3OCmerRq/TKjmzxOeeBbTAwk0tfWg/ietuOXBx7FlYMhWe6Ujca2tCFUk6ordZglQZciqji+3DeG4sy6BM5pAY3sv6oLdoJUL1U71kC6nyYnaVg1EPs/YBqKdCZWs0krunFBOChrWKkUpkifFHeVmJgYV65/GEi1eCOfKIsaq8cWEOrZxXO3+OGKkQ5CBu7kTi1dfgPXb+6CLwgf22SudFIRKxqnYbCafuK6hWCqLEOnX/7kOwaNXwhXrhjOexX/P7oY3mhMybp5Agi3UGrLQbU2owt1IIiSZXXV9hbVKiz9hSZGLkptZGBgkamBLCxkiVJqoSQ6y2oRt5jEmVPMJdXqkB+5wBrEFK/DOR/+BIoyssij1ORKR2eV1W1mo5bJRNUBTVaiqAn04x6ioaLj98afQFO0Ukm6OKAGeRVMkBZ/J2pxmDjb+LvMHm60JlSzUMJFpVpQcJBcwESnpUdOE7wtluJmIgUGihtg9YV4hUsLdqrHHhGo+1vWBNL7fmsd9T/wFEhmlCpU/lAEbRfOOROC2IlRVGSZRTYckGxUEFLJWVRlfbdqOc6++DYe0LYIr2iu0Uf3hbjREjFWpVQOIz2P+ANofTO1PqBW5tKSwmCha8dB5CzEjXkBTNM/NRAyoTjKJAMxopYLTPWL/mlItnM3Wea2YUM2fDw5vy+PMK27EFxu3YXBgELpMxVN0oYo0EpHZ5XVbESrF+A4NGZvPmkYAapDLRVE4mFzo769bj56TLkD9rE54I1m4w0m4ad+E3DxUJ49cbrRfRXtVMfNv9P5M/Pze8cHfDoTqJWtIBMORdZQx+mA0B28sD2+crNIk/rdjMRLHn4MTLroeZ19zFy64/h5ccAM3UzG48R5cdPN9+Nmt9+OiW36D867/Nc64+jacePH1aDvmNBzevgBeKq5BQWI0X4iSkOa6g5lQxzbOG2lbJJSCN5yFN2oUkKBx5YtmsPTUc/D6ex8JjV59uJgw6d/TdqDdHzYj1JHhIkWMYlnCq++8i67Fy+EJdMAZ78W0MFWWyKMhWkBDOCeClZwtWUxvG9uNZiK0N252IFQHTcytBbjDKbgjKZEK4m3txXQS9J6XQceKM3Dbg0/iw483YMe2EtQSeauMnDnqx9zMwYDKQNK2UKWRck6pVELfwCBeev9jXPXrB9Gy5ETUz5onJmoKDDM7K4AJdWzzRUNzF74fz8MVzGJ6uCDmclckidDiVXjttddQLBaNLb/he1y51yMzhD2OTCJCJUUMoKjqeP7t99C6+AQ4Agm4WvIiUIny/Khzi32raAbOKLuCp+LiwA6EWje7U8hhOoJJkQYzo32hCJKrb+5AYfU5eOEfH6OfNEp0I46Ctn5o0ufH+CNAOCuqirKmYXtJwlOvvYO2RavgCXSJUnoek7MCmFDHRqiOWSR+vwDTZifgCJFWbxrBwjF47KU3IEmSGC+08KQH1cymNhkek4JQaZBIZQNclfZXAfzmyecwJ7UU/tYM3C2U49cFF6XUNHfDE0gKcp2KhFLr12QHQqWtBl8sB2c4AydZPS05TD+qFS2LVuCF199GUaKtCgU7tmwTc4CkSdBoz4IfpiKwN6tFLFx0EnodgKYUhRjA2rffQzC3DAcf1QWPyTKmTKhjI1Rf6yJ8b1YSbtquC3WjOdmLB598GiWR6aELC7VcJhl8YzFaIVdTO9A4fNmkIFS6bkkCpBJVFwB27OwTFsA9v/sT5mSWwBOZD0egHd5oUrh2/OEcZsZ6LYv0q3WSs/L67UCoTbSl0NwJRyQHV7wAskz9zW246YHHhL6oQtHqpFCikVdFgQIZ+qRISx+HGWYcv5IItUKqRKSVRil30IqiqeVBDJRl/OLuR9EYLYg9OzP7KxPq2AjV07oIDtqmiyQRSPbilnsfwI6hIiTVELynbiMWR8P9h+7zZHhMGkIli1+TNVJEhlwaEu60Tdv7cM3t92HuohXwhdrhDHfAE8/AFc7AFTTC6c0cPPxdYxs8ZuJmB0JtjCZw8FHz4IwWUB+hfaAuhDML8cEXX0GhdC+qgCFJ0IbTwBRo0PaY8CsTPz/vJsGxYFFtgqWMAShlQDLmirXvfIRI78lG8KKJaTVMqGObE1zRHKbNno8ju3tw58OPYcvOPkgUX6Dru9y7tCc+WYi00hcnDaGKBQotUmigyCVA5Klq2LB1EHc/9jQCuaWoD7XDEU8b+6pRLvlmJpHZ5bvsQKj+UCdcoQTcbYvwveY0ZrRm0XPCqRjUNUjQhC2qySo0SQV5ehV9WKO6Mur42VQEvk3GVB+zKNbeBLwCuSzh3xv6cPRZV8EbJOGNsZHA3j7HhDo2LCmY73+7F+D23/0RWwYGIGsqZFXDUNkIWKMOsqf3gV2+pg6Zb32ZCPAwgjyIYwdkCWueewGx3mVGRF9LL+pjC+AOdcIfS4n0GifJFMZIpDwHswMT9jbQ+LWxDbR94WYXQiWXbz2F+7csRGM4gUuuv9VQdBGuXoNBVbJQKf1LNaJRv9WL+Z/jhAB5A0qKLoJbaOGtygo29A/hzKuux4yYuZ4rJtSsEC4R6mDDEpBN8YKoFkPSsIdQ5Hs4h7pAHp74EnhjvSB1u/b8Yjz6+8dRkmSomiYCyag7DA4NjVOvsOZrJ42FOhIcqipBhYpBVceatX9FcuWZcDV3wIjATKI+2A1HOAlvPAdfS15UqKHc1X1N3Hx8fAjxQHG1A6HOaEnBGewWLl9npIDGUBJnX36dCIAxktApaQ7CMtIVCvEdqffy6+OBAMFdUhRIkiFhSv/+dONWnHLp1WikOAu2UE3FgMQ0KpWVSFTDFUgIiU169pHQRiCDQzuX4+BZSThmzUdq5Vn48wuvoBJ0RBG85N6dCo9JT6iADE0rQdZV9MmKSKk5/pxLcEiwHZ6WBTh4TgLuWB4NbT2YNqdDTIR+Fn0wdUCZOUHt67vsQKhNLRnUN3fCFevB9EBaWD2LTjkXg5VAXprBhxvtp2qCVOkFfliBACFdolgL2fAQkBTsuk07sOTsn8FHEdpMqKZiQHKbRpWlnChfKKQ2hwsVOIMZuEJZeIIpHN6Sw8KTzsGzr7+LkmIElFX6A7ntJ4tbt/Kb9/Y8+QmVaqdqZShKWfjhS5qOd/+1DlfeeBsO7zxWaP5SmbeGljy8LRm4Igl4SAPYxEHF32WdNWsHQvWEk2Jx5qEI30ASM+N5BNLH4G+fbYICXfTDMk3m9KDEdJLR5DzUvc0/4/IaEapMuGs6NEUTerCvfPApQguOhzds7thnly9pKBvlCkm32igMQfPBcNGCeAH+KNU0zeCnl1+Pj/7zNRQKwtYMoRNjiGjCPT9Zck2rddopQKjkUjOaqinQdPLHa9jZ14+7nngBLQtXwR+Yj4ZYEv/9kxZMD3eioZUDlibrIsAOhOoSNT3T8LcUDDk7Kh0WSODqex9HPy3soGNARKJT6owOMYNUG4V8zFQEiFBVoaahQVN1lDXgopvvRkM8DW+U91DNHvuN8fxwEYiE0K8mYnU2d4vmCXUiXDgGD/zxz9jWP0hJGgAFvgw7bMgyrUTzVv42tTNY/GWTnlCFe0dSMDhUMpRpVAVCUJ+IVQfe++Q/OOa0czD9xyEc1tkL19wspjV3soU6SS10OxCqg6yclvywRqxR4Lp+djfiS07Di++8gSFdQUlXjTmD/I0k7j08gVg8vmv2dPrwrF0slvHKW+9jdnIR3KSeFjN3Mc0WquGdMsoTGpWV6mfT/JrB/3QdjfQJq/G3z/6D/nIJGlWMoXFAuhuKJvZQv713SipJk/kx6QmV3Ad7LnrIzSOWQeRiI3JVFPz760247oFHMavnWDhiCVBFePL7Uycw6lVmhai+EalGdRVJtNmoa0nC2iTaTAL8Zq/s+Pv2H1M7EGp9MAlvLCeUuajP0H30R3vgak5g0Smn4sW//x2bBgYNcW/K96I9VH6YjgCJZez+b9e2tfBSleQydvYP4PW3/4HEwuPgmTUXjmhWKPOYOe6mIqFWXLii5CApge0q4G70dVE2L5g2pF7DNA7ScIeMGsA+2l4LJdGy+BScff29+M+OPgxqtLjUoKtlaGL745tdgSxTClBil+83cbHfv8SKSBPRl9slDc+89Q+cevm1mJU5Fg3RvHBPUFFikpJzhZPwxFJoiFLZrW54qEXScEczcEUzIGFtMwcif9f+kylhZgdCHeneUV/yRzOYt+x03PDQH/HuZ+uxoa8fg7KEsqJwMxmDoqpiSFUwRIUzNONvSqGjvMZX3vsnrr37fsxbuhK+UAdckTQcsQI8VJXKxMXxVCPUSsQuLRQpuIjI1HDppuAJpkUREk8wC28ghxnRBfAHCqhrzsAb60FTNItZnQtx1s+vxcuv/R3S5JDfNZW3Jr2FWh0Nyv/ThAocBWX3y8AXWwbx2HOv47hzr8QPWjLwNXfAHeiEI9iNhrk9mB5MYXogaWi0Uo3Fth64iVipDJSJA5G/a+oRKqUOHEL784Eu/Gh+LxLLV+P48y7FedfdgktuvJObyRhcdsuvccnNv8bFN90p2kXX345zr7kJp116LbqOPw2NofnwBOajqTWHuuYuMabZ5Vt93FHaS6XOLHnwKlYqeei8Lb1wRfLwRArwRXvgDeXgak6jMZzGzEgSi0+7CI8//zq+2tyPwSGqDlF9dp6KR6c8oaqqAllSoEgU8QfoEjBU0rFhxxDW/OUVZFecjsNaUiKc/r9+3IYZ3ctFsv7BzSkcPLtLVLTxRQzLg0mw+mC0Ah9bW6ihFOqOaIVzdjv8oSQ8wW64A904ZG4vZsZzaIqkuZmIQWM0DX8kJVpjLANqfvI2BbpQF0ihqX0xGtsXoT7QLQjVH8+LfEkz++lUs1AJG1oYUm1pslbJ60IES9hRecJpQfLk5YTHztncJSLc86vOwqPPvITNAzJ2DEmQKGZA0zC4c/tU5Myq1zSlCVWh0Hm6/OGNcJALgkxVkoOjcHod2Dyo4N4nnkV21U8xK7kE//eHc0VFikPmLUJDPC/yqnZ1MrZQJ9xKtzOhkmvsBx2L4A0lQalaja0L4GtZiOmBLFzhPDzRHm4mYuCKFuCM5OGMkgpPL3xtC+FrXSjyg6eF83BTRZPmJOqCKcycv0jIRQqxARPH8VQjVIotIVevJ5TCjJYezGxbgMaYEcXrCCcws72A78/rwaHxlJgzH3jmVWwdUDBU1nYF7xaH+lEe6gcopbHGHlOaUHdV+BCFP0hX1Vg5iTQGVRdFKSQVohzcf7bsxKN/fh5nXHETOo85BYfRfmqwGzNo3yWUgTvALl8zV/Zj/S47Eyq5yKbP6oAz0JMUrUkAACAASURBVA1nIAFngIg1DW8sDzcFb4Sy3EzEwBMrCBekk7CN5OGODv+b9klbe1EfSoGKwXsprSNGi5oUvBFzVdKmGqFWLFN6Nog0JdJffOEU/nd+Hi0LluPMy6/Hn15+E+u39qNUSbGmOVY1UmB03bBayqXBGqNTYGoTKkX8CgNVh6IrkEgoG4rQjqyEBlNUMEWZ0X+lchE7SzLe+ddnuOuxp7HywmsRXngKZs5dAm/E3HD7sRJKrX/OzoQqVvehjEjNoEhJL+27hxLwhbpB0Y8+SnznZhoGAuNIRsQ3eIScaAZeEhSgCP1wF/zRJBpbsvDFsqIQvIfkR8mdyRbqiBj4ozmRAUF7p2Slki5veMnpWPazG3HHI3/Emx98iq0DJcgivYJcfZVShYYcgCQC8GShXEciJ7X2mNKEuuf9pFtrNINAd93oXQo2OjQquyWSwnWUZBVbdvTj/Y8/xe+efAZnXn4t4ktW4fD2HJyBDtQHE6IWpmfuIhEFLCKBY7Rxb6yG60NJEeBEJb6ouSitgtsBYzA7fxxeeu8D4VUoyyShoEDXJeg6lSYe6UGufw1bShJaFx4PXzAh0qDMjvikiVoEb5DQA0X8RjJoiGbhF1YRRYlzGxcMwnvBVaS9Gco9ldQmM4m08l1jsVB1UZNIA5XPfuCZF+EKtGPG3IVwk8Vt4hwxPZSFg1zf8V54WxbCE19glBwM5+Cg4KJ4j/CeOIMpuENJNMSyOKy1B4fFc4jlluHMS67Fmqefxwcfr8PXmzZBUowAz121SegPqj1bmVyHh9+uUoUjDccp/PrUJtQx3rhK2aDKxylHakjSsLWk4bX3P8VtD/0RK8+/BqHscvhmd2JGSxqeYAfqjmzB9CNb4G5uhz/SjYZoSqyORR5rNCNUWkiphRpVv+G2/xgclV6Cp15/C0Va+NB41olQS1D0gcrt2suzdYRamWj5eeID2Ky4B2MhVOhlscCjHcaHnnkJvtlt8FAg1VGkNb7/Y2KkzzRSlkJLQVjlZLlTURBqZM03xDJoimdwSDyDH7T3ILZgJfKnnIfrf/ME1r67DpuHdJR0oEy5L4I0OZd6LxPLd15iQv0OJMYLFRksEmymv4VYBEWvkfwSid/IwI4+GV983YcnXnwT9zz+Z1xx2704/eJrcOxp56FnxWokjz0ZncecjI6jT8b8pSehfcmJmLf4BMxbvEq8Tse47R8GK869GG/962NhoYqFsSpDVUugVf/IDyZUK8ilFs8xNkIlkqIaWcCzr7yF9NEnIbXsdHQs3b+xsK+5g+aauYtWiUZzUGblmVh02oVYef6VuPjGO3Drg2vw+NpX8eaH6/Dl9n4M6sCgrInfVVZ1kMiXphmi9Zo6NarBjDxHmHOECfVbOO4i0OECt6S0JKogaDKgFKHLRahyCSpN5JoCSZFRVoGirGOwrGKwpKB/SMK2viF8tXk71n29BZ+s34xPvtqEj6l9uREffbEBH/xnPbcxYfAlthdLYtDrZKJSvUuVynpXG/BMqLVIdlZc85gIlZSDFIUyS7C9bwjv/HMd/vX5Zvzr842mzgnr1m8W88+nG7biiy192NRfwg5Jx4AClFWSZtWhaFTQm3JGafxQhJEMqBKk4gBUUeDBCO1UiV35sU8EmFC/BRFZo+TyJSIVlunwcZqwZZQgoQhJPJchQTKCnGTKdZVFIeNK7LiodKEaew6qRh3XEO2XqayUogrNdOqi3PYPAwp0oKFveA0M8XkSQqfyfSM/mFCtIJdaPMeYCJVCIKnaimakmigaxWxoKFNJMxPnBLHepDXncBOqrGLIkG+H9j4p60EG5CIgDwHKEKBSDVkiVmpUYo0IVxPz1cjji49UEGBCrSCxxzNN1qQrWSl8SxaqYYlSjDC5RHSo4lmBQis60qnUVSiKZDSVCubKEG4Ssf9AnffbbXeVnEq1HH7eNyYUXKSJicBwvdO8QG6pMi33R3wwodYi2VlxzWMh1JKmikUhLQ6JQo0ZhQhs3/1//9/zLYoeJklJJoOhEqlJ51WEZSrijAAhzqAow9tdI44rPvBtBJhQv4XIni7fbx3aHc1GHZEMIlr6DQe50ZS9q39W+in1Tpro92zfIdZvEy3/+7uLjz0wqaysCUcSnad8YqqQ9p2btecLVhFqRijMUEEFUVShkp4RNgJ0SBeV2/hg4COMKdq30r4TUT0+QVJjIVQSi6dleFGVUBL7/zJksg7p1fGYH6iUncjBJ+I0JiyiWVEISaZC7LKRo69rYvuKohFoehNUTFa0WKzS7MaPfSHAhLovhPj4FEDAOkJtoIm8JYf6WAZ14TRcVIUjkIU/nIM/kudmMgYN0YLAlAjVGzKa+DvYDRIjaIwRkRplxWiRQ3mWZlquYyHUKTCg+BJGQIAJdQRg+OWphIBVhEp5qBnUhyhHmXKSC2Lybgrn4I5mBckS0XIzB4Pp0TTqwinURVJwxLNwtxXgasnDIapD5eCN5uEKpkSZxoZYHq5AN9zBJBPqVBraNrsWJlSb3RD+OeOBgDWESmTqDKfgCCbxvSPnCmH8w1ry8M/qhJcUk+JpbiZi4I9TXmUCLlKiiqXgb8nAFerC945sw/eO6oI7SpKPWTgC3aLusVH72NwyjGyhjsd4nbzfyYQ6ee8d//JRI2ARoQoXbxcOby/gR/N70JxchGVn/hy3PPQH3PnwU7jt/j9wMxGDOx78k8Dz5nvW4LbfPCHadXc8jIt+cQfiS06FP9SNmS15Ue3nez+eKyqkNMYNr4FZbl8m1FEPwpp4IxNqTdzmWr9Iawi1IZrBYXOTaFu0HHc89Di2DCpCbqJIaQvfCrY0Ij4qkR/8bCYekgR88OXXuP7e3yKSWwpfczsOmbcQjnAOzuDEi+PX+micytfPhDqV7y5f2zAC1hDqjJYclpx9Hl5+7wMjWrJsJMyregk6pVftyu+r5Pnx8wFhQgWOK20XtkYKiK4OYbA8hKdeeR3pE84ScnvO2AL4Yj28h8rzwrghwIQ6btDyF9sHAXMJ1UVVTOI5eAJpOCM5/HdzJ3yxNDqWnoS33/8nBkqk1QqolI6gUb4fJfWwiWoZBlQHuWjUOukrlfDBui/Q1rsCBzV3iVJuZrl76XvY5WufUW6HX8KEaoe7wL9hnBEwl1Ad0QT80TR8wSycsTzq4ml4I9246b7fo1Qia9TI2aP8PcrxM/L4xvkS+et3I0DwywZ9S0JwBbjqlvvgb8szoe5Gif8aBwSYUMcBVP5KuyFgLqE6Y0m4gwk0UmmsaBauuVkcPj+Hz7d9s4QciYRUFQqxG0xT5fcMEyrJfQoxPx14+4MvMGfhCfBEOcp3qtxmO14HE6od7wr/JpMRMJdQHfEU3MEUGkM5uCgPMjwf+dXniPqWZJ2SRUqtYqmafDH8dftCgAiVlPQEndI+K/D5hn4UzrxUFCNnl+++AOTjY0WACXWsyPHnJhEC5hJqXTQp6ko2BDLwhFOoD87Fz269C2WhMvldMmVytbirUJ1cybBOdfL9qjq+3jSA06+5A15R7N08GULeQ7X43tr8dEyoNr9B/PPMQMBcQp0WTYmoUX8zqfB0o6G1Ez+9+heQSSZ1eP+08qvZWq0gYeEzEaqqQ9Yl6OQ3UDVs2tiP0664BX4mVAtvRO2digm19u55DV6xuYRaTzJ34Qz8zUk4Zrfj0PYUupcuE7US9iRUtkwnsKvpVKN4CJo2BH1oEBu+3olFp14Ib4ilByfwrkz5UzOhTvlbzBdIm2hUKGtLSULrwuPhCybgjWThiYxNKN0dz8IRSaOhtSD25PzhDH7UdSze/XLIqCykasJCotwZER/DGTMWZMyIQp8wCg3rkCSq8ymjuHWruAmv/uNjzE4vhS/Mwg48I4wfAkyo44ctf7NtEDCXUBvaelAXIFdvjxDD9wZTcM7qxKV3rkFff1FUlftGLT8RoPTN6n9EtNzMwUCsV6iE33BFP6rqVxwcgFYuixd3DEi46Ia74YtSepN5+6ech2qbAW6bH8KEaptbwT9k/BAwl1AbW3tw0JHtwkL1x3JojOUx7ch2xBafiqdffhs7ShABSjt37AAUCVBLtLnKBDoOiwiNvADDnoDKAoUKzisyYQ6UZeDJF9/BEd1LcVBzAv44KyWN3zjjb2ZC5T5QAwiYS6hUU/Pgn8wDlQTzhNMgUvVRC6eRPv6nePqND9CvCW0Bo1SzNAjIQ4Ba5GYmBtIg9FI/9HK/gateBrQSdGkQg1IZfWUVD/xhLeYvXQ1/vIDvhTKoD6ZYerAGRvxEXSIT6kQhz+e1EAGTCTWUgSeQhC+cgaO5G/WBbnipDmcwAQdZqgtOwK2PPI33v9iMLzZvx86hIorlEoqlIrdxwGCoNDSM6xCGioPYumMH3vzkc1x5x0MIZJbjez9sQ11zAr55vfCKguPmuX05bcbCYTwJTsWEOgluEv/EA0XAZEINpDEzVgDtnZKFWh9MwElFran2aTSPup+045BYBu1LT8bx512Oi2/6NS791QO4+DZuZmJw6e0P4ue33o+f3fIbge0lv/otLrjhbpx62Y0I9yxHQygFZyANVygPX0seznAnvBG2UA90NPHnR0aACXVkbPjIlEHAZEINZdAYzQsLldy/VFjcQy2ahXu4PJg3lII/lERTNA1/KAF/JAN6LzfzMGggPEWQkYFtg3C7Z+AJpkS+KWHtCWfhCqbR1NoDTzgBb5gJdcoMaxteCBOqDW8K/ySzETCXUM2UruPvMs/9OhFYssvX7LE6ub+PCXVy3z/+9aNCgAl1IsimFs7JhDqqAVgzb2JCrZlbXcsXyoRaC+Q2EdfIhFrL88p3r50J9buY8CtTDgEm1Ikgm1o4JxPqlJssDuiCmFAPCD7+8ORAgAm1FshtIq6RCXVyzABW/UomVKuQ5vNMIAJMqBNBNrVwTibUCRzWNjw1E6oNbwr/JLMRYEKtBXKbiGtkQjV7rE7u72NCndz3j3/9qBBgQp0IsqmFczKhjmoA1sybmFBr5lbX8oUyodYCuU3ENTKh1vK88t1rZ0L9Lib8ypRDgAl1IsimFs7JhDrlJosDuiAm1AOCjz88ORBgQq0FcpuIa2RCnRwzgFW/kgnVKqT5PBOIABPqRJBNLZyTCXUCh7UNT82EasObwj/JbARMJtRwRhQV95AA/rA4vjuchjucgSeUgzecg1cI4ydxaGsaTZEOzIxncUhrgZuJGBw6txcz2gpoas1jZlsBM9t60BjPwhtOwh1OwBPJwt+yAM5QFq5ICu5IN3zRNNdDNXt48fftQoAJdRcU/MfURcBcQvWG0qBKJ65AUlSaITL1x/OiyLg/UhCFxg9vy6Fw8k9x3X0P4eG/PIffPf8qfrf2DW4mYrDmxTfx6NrX8fBzr+KxF97A7158Ew/+5RXc9tifkDrpHDTFs6ib1YVpc5JwRNJwtyThi2WYUKfuQJ/wK2NCnfBbwD9g/BEwmVAjWTgCCRCROgNUEiyNmW29wip1HtWGruWr8ezfP0KfDuwollFWFOiqCigKNzMx0FVoqgJNlQFdBXQNmiKjVCph05CCR/78KhLLzoK3mYi0gGnBhCgGb6Yrml2+4z96J9MZmFAn093i3zpGBMwlVH9rAQfNmg9fPAd3kOprZuANpNAQSmL5eT/D259+gUEAJUUDdB3KQD9QLgFEqtzGBwNNBTQNoGdVhSIrKEvA2lffw+KTL4Jrdjec5D2I5dlCHeMo4o/tGwEm1H1jxO+Y9AiYTKhze/Bfs9pBxOqNZNEQzqD+iHYkjj8Hr7//AXZKMkqqiv6+PkCRAEUWBhTxKzfzMFAJz+E1iuBSHdB0g681sYChF4DX3l2HeO8JcATTaGjpYUKd9OPZvhfAhGrfe8O/zDQEzCVUd2seBwW64GstwBNKwx9MY0YoizvWvARJUqCqOmRJgkJEqilQ5TJkDZDBzUwMiDy/0chApaYDslQGZBml/gGUFeCuNc+iqSUHZzDJhGrauOIv+jYCTKjfRoT/PQURMJdQp0VTqIum4G3JwzGnW+zRzUmtwGc7iDF1aGUym3Toug5JkSHpKnSiU13iZioGhOlw08gTUAbUMqArkHQNuqqg2LcDOoA3PvoMs/PHcpTvFBzddrokJlQ73Q3+LeOEgLmEWhdLwxPOojGYhrN5Pg6Zl0Tu+FVi4iYSVRQFmqYJQqW/6TV+WIuAXAKKUkn4BMo7tmPjxm1Yesb58IYSbKFaeytq6mxMqDV1u2v1Ys0l1GkRI12mMZSBN5yAL96B8669Acpe4K2Q614O8UvjhQDto5LBSlHAGrl+JWza1IfTr7oJDTHOQx0v2Pl7ASZU7gU1gIC5hFpPk3I0i6ZQDp5ICnWBVpx/w20oiz08bZd1SpZpxVKtAZDtc4m0t1rWKR4JQ6V+4X5fv6kfJ19xM7t87XOXpuQvYUKdkreVL+qbCJhLqK5WskwzmBEpwB3JYFq4A10rVqMIypLRoVLaBrt6v3kLrPwXedhpGxu0h10Skb6frt+J5MkXwB2mNKesaY3zUK28sfY/FxOq/e8R/8IDRsBcQnXGU3AHE2iKFOCJ5+GZl0NjPIF/rd+565fuuW/KVuouWKz7QyPDVIVGdqoG/PVv/8YR+ZVwm0imRMxMqNbd0slwJibUyXCX+DceIALmEqojSoEtaXgDGbhbelAXT8MV6sAlN96DgYGBXUFIRKqVdoAXwB/fHwTIQpU0KFAhQ8XgQBnnXHozfK29cEdzplmnTKj7c1Nq471MqLVxn2v8Ks0lVHc0hYZoFp5AGu5oHtNCJMSeQii7DE88+wK2D5YF3jIlQFK0r0qRviqEqSR29mh3j9sBY0CYagqgEs6KkB4k+UH6tzo0BE1XsXVgAE8+/xqOmL8A32tOMKHW+Eww3pfPhDreCPP32wABcwl1pD24hmgGncedgkee+Ss2by9DppRI2ssT6gOG1qyY8GnS52YOBkJqkAh1D3xJ31eRsWHLNtzx0Bq0LFohqs/UhaniDIvj22BATtmfwIQ6ZW8tX9huBCwi1FgWM1syOLJjAS676T6sW9+HIQ0iWIk4lY1SczGgNKVvKy+VNGD7kIxn33gPP73yRszq7oV79jw4A6Tlm4aHCXX3sOC/TEeACdV0SPkL7YeANYTqCadRN7sT9Ud1wDNrPn44twfdR6/GsrMuw0nnX4NTLuBmJgYnXHA1Vl1wlWgnXGj8vezsS9F78vn4UfdSeIMJ+MNpNMZzcMzpNF12kPdQ7TfSJ/oXMaFO9B3g81uAgDWESkL5vngBM9oXwRPNikncH0yiSdRNTcITS3EzEQN/JIWGcAoNkTRmxLKYEaeo2yScczpx8OwuNLT1whXOoG52lygIT8XgfWF2+Vow4Gr2FEyoNXvra+nCrSFUKuPmDqUxPZiEM5aBi1oghUYSgIjl4YznuJmIAe2HOoMp0dzhDLzRHOiZXvPHM3AEuuCPZdEY74GrOQVPKAt/hKN8a2nkW32tTKhWI87nmwAErCFUfySDxmganngG0yLdmB5JwRfNwdtMFWmozFuOm4kYkDeA0mCcoQyc4QzckRxckSycoRR84floiHbDG+qGO5iEn3KGQwV4w+aJOrDLdwKGss1PyYRq8xvEP88MBAxC3TRURuui49EYSYtC064Quf/MdQGOFAHMr5tLZHbBsymWx6oLrsamnQOGPBNlv2okKMGPWkSACbUW73rNXfMwoQ6WEO89Dr5QwnAPMqGaKnJgF5Kz8neQUtLK86/8DqFyfaGam2TEBTOh1uZ9r7Gr3k2osZ5l8AS64AlnRAk2tlCnpuVoFal6g2msOG+YUHVK5DEsVCbUGptihi+XCbU273uNXbVBqJuLZcR6j4O7uVMEr3jC5gaoWDWJ83nsswjwBFJYef5V2LRzELpGWbFMqDU2uXzjcplQvwEH/2NqIkCEqmJbWcHcxSvhDXYLC9VrcsQnE519iM6qe0Eu3xMv+gU29w8xoU7NyWO/rooJdb/g4jdPRgRIR5ek0ncoOjqOPUlE4lKKhYcJlfdQD7D6TFOsgFMv+SW2DhSBYZevolHhOH7UIgJMqLV412vtmnUVuq6gTwF6V18g1HMoX9FjcgqFVVYRn8daS9hPZdoE8Rp1cA1xCCM6vKmlgHOv/hUGilT8QIeqyaJsHBNqrU0yxvUyodbmfa+tqxZVSVQMKsBFN/8GrkBiV+4iByVZS06TczFgEKk3lIYnlIY3nN6VbtU4L48b714DjQoM6UAZ5A1hOq2tCWb31TKh7saC/5qqCAyX9JIAPPL8m2ii3FNSLuK0GXb5jsLl6w6m4Aokh8m0krtskOwPunrx+DOvQaXKQjqFJOlGDir9gx81hwATas3d8hq8YF2HJpUh68AH67fjR+298IYzqA9l4GVhBybVfZCqJ5gSakuGdZoResD0NxFtMHc03vvoS+gSUFZkyESnxKWs7FCDEw3AhFqTt73WLlqHJpeh6jp2lFVkVpwOT7Ab9aEshKD9PibUyemmZFeuefdtDzUt0gwWrl8i2RSOOf08bN1eBFRgUC6izIRaa5PLN66XCfUbcPA/piYCOqAqoqB1UdFww72P4PtzC6jnKF+2TkexmKIqNf5oVng1KlYqvdYYL+CeRx6HTHsJOlDUygahknXKFurUnEr2cVVMqPsAiA9PEQR0DZoioyTLePX9TxDsWQFHtIcJZRSEYp6lNzmtZorwpUAkEtkXQvvRLA6ZuxD/r3Mp1n2xQZCnrsgoQ0aJmJQCfqnxo+YQYEKtuVteexesUrAI7WvpKtRiH3bs2IFzr7wRh0YzcB6ZRGMgh0NjvfA1J+AOdMMXy8FBFUuYbBiDSBaO5nY4wt3wzj8aB0V6UB/OoinciWvu+g20XcFHutg65VCk2ptf9rxiJtQ90eC/pyQC5H2TVEBTJECXoSoy/vzyWwimj0VD1CjpVT+rEzNaCsK1N21WB5pa2XrlBYVhUfujScyc34v/85P5mB5fAGc4jbbFK/HBlxun5Hjhixo7AkyoY8eOPzlJECCrQVJ1qDLlNsjQNA2b+8u45MZfwx1LwNuSxfRQAj4i1HgezjldaIyxzi8TqkGonnACnlgadeTyjebQFE3h1oeewCCbo5NkBrDuZzKhWoc1n2mCEFA1HYqmQxOBSSpkWUZJBT74dD3mrjgF7ngXHNEUpgVTIjf10LZeOGfNZ3cnu7xFH/CEk5g2qx2Hzl+IGbE0lp9zGT7duB0l2kvgByOwBwJMqHuAwX9OTQRUVQW1crkMRVGg6zoUVYWkaPjDa28hkF+K6YEO1IWyqGtO4bC5vfDM6WBCZUIVfaAhnoejuRP1R7Zg3qKVeOXvH6FvqLzH/unUHDd8VfuPABPq/mPGn5iECAgSVVSUZapZCSiKDKiSyG64+9E/IdJ7EryxBXCF83AHuzEjmmRCZUIVfYAKKbhDSQQyx+A3T/wFA5KGUrFkpGJNwrHAP3n8EGBCHT9s+ZtthICqKtB0QFZUSOUyoIkoJUDW0D+o4crbH8ERyePR0NKL+jmdaIzT/hnto3KrFQxEBaJw1qiVS6ky0ZxonlACczLH4K7f/wVF2o9XVEGm0kC/jXo4/xQ7IMCEaoe7wL9h4hCQJEDRsGFLH26+//dozi7HtFmdcIRyoALk3GoHA1ckJ+Qo6dkRzmJ6IAVfSy+6jj0RDzz+B/RJEmSqKKPKRqk2pTRx/ZbPbEsEmFBteVv4R1mGgFqCKot0fGwZVHDf48+j8+hTcUg0BVekk1uNYOCOdKEh1AV/sBOHxjPimf6dOvE8/P7F17B1qAgZgKxrUEgaiWqfqiSRxA9GYDcCTKi7seC/ahABRRuCDgmSXBZBSpSv+tG69bj5zt/iF/c+yK2GMLjx3odxw90P4qZ7H8Z1d96Pux/7Ez74cotw85Z0HUVZAhUPNxQcdCFlWYNDhi+5CgJMqFXA4UNTHwFdFNwi20OFrmmQy7Khw0pqEJQVwa1mMJBE+TUqwQZU/h7uGVA0WUSIixFBKVjysMTg1B8ifIX7gQAT6n6AxW+degiouiZSakjsgQpaylIZmqxAlykKmET1udUKBrSggq5BliVQEBv1BwpgU6SiEAShY/SapmhQiXFZAH/qTQgHeEVMqAcIIH98ciMgPHgaQHOpqmnCpadChaxKolQ0lYvmNvUxMBTuNZDIPTUiT02WRINShqggrikQoeIkfE9kyoQ6uQf/OPx6JtRxAJW/cnIiYHh3SeSc/uJHTSKwS+yejFFNiICQVbrb712TqPBFjxIBJtRRAsVvYwQYAUaAEWAEqiHAhFoNHT7GCDACjAAjwAiMEgEm1FECxW9jBBgBRoARYASqIcCEWg0dPsYIMAKMACPACIwSASbUUQLFb2MEGAFGgBFgBKohwIRaDR0+xggwAowAI8AIjBIBJtRRAsVvYwQYAUaAEWAEqiHAhFoNHT7GCDACjAAjwAiMEgEm1FECxW9jBBgBRoARYASqIcCEWg0dPsYIMAKMACPACIwSASbUUQLFb2MEGAFGgBFgBKohwIRaDR0+xggwAowAI8AIjBIBJtRRAsVvYwQYAUaAEWAEqiHAhFoNHT7GCDACjAAjwAiMEgEm1FECxW9jBBgBRoARYASqIcCEWg0dPsYIMAKMACPACIwSASbUUQLFb2MEGAFGgBFgBKohwIRaDR0+xggwAowAI8AIjBIBJtRRAsVvYwQYAUaAEWAEqiHAhFoNHT7GCDACjAAjwAiMEgEm1FECxW9jBBgBRoARYASqIcCEWg0dPsYIMAKMACPACIwSASbUUQLFb2MEGAFGgBFgBKohwIRaDR0+xggwAowAI8AIjBIBJtRRAsVvYwQYAUaAEWAEqiHAhFoNHT7GCDACjAAjwAiMEgEm1FECxW9jBBgBRoARYASqIcCEWg0dPsYIMAKMACPACIwSASbUUQLFb2MEGAFGgBFgBKohwIRaDR0+xggwAowAI8AIjBIBJtRR2wbStAAAARtJREFUAsVvYwQYAUaAEWAEqiHAhFoNHT7GCDACjAAjwAiMEgEm1FECxW9jBBgBRoARYASqIcCEWg0dPsYIMAKMACPACIwSASbUUQLFb2MEGAFGgBFgBKohwIRaDR0+xggwAowAI8AIjBIBJtRRAsVvYwQYAUaAEWAEqiHAhFoNHT7GCDACjAAjwAiMEgEm1FECxW9jBBgBRoARYASqIcCEWg0dPsYIMAKMACPACIwSASbUUQLFb2MEGAFGgBFgBKohwIRaDR0+xggwAowAI8AIjBIBJtRRAsVvYwQYAUaAEWAEqiHAhFoNHT7GCDACjAAjwAiMEgEm1FECxW9jBBgBRoARYASqIcCEWg0dPsYIMAKMACPACIwSgf8fqGujB9Xi63oAAAAASUVORK5CYII=;" vertex="1" parent="1">
          <mxGeometry x="312.9200000000001" y="592" width="76.58" height="64.97" as="geometry" />
        </mxCell>
        <mxCell id="s4qYqvt0TCnv7wZda3Gq-18" value="" style="shape=image;verticalLabelPosition=bottom;labelBackgroundColor=default;verticalAlign=top;aspect=fixed;imageAspect=0;image=data:image/jpeg,/9j/4AAQSkZJRgABAQAAAQABAAD/2wCEAAkGBxAQDhUQERAVFhAPEBUVGBUWGRYWFRgVFRkaFxUVFRcZHSggGB8lGxUWIzEjJykrLi4vGB80OTQsOCktLisBCgoKDg0OGxAQGy0lICItLS0tLS0tLS0tLS0tLS0tLS0tLS0tLS0tLS0tLS0tLS0tLS0tLS0tLS0tLS0tLS0tLf/AABEIAQAAxQMBIgACEQEDEQH/xAAbAAEAAgMBAQAAAAAAAAAAAAAABQYBBAcDAv/EAEAQAAIBAgMEBQoEBAYDAQAAAAABAgMRBAUhBhIxURNBYXGBFiIyQlORobHB0SM0crIUYpKiNVJzgoPwJDPCFf/EABoBAQADAQEBAAAAAAAAAAAAAAACAwQFAQb/xAAwEQACAQIFAgMGBwEAAAAAAAAAAQIDEQQSITFBE1FhcbFSgZHB0fAFFCIzoeHxMv/aAAwDAQACEQMRAD8A7iAAAAAAAAAAAAAAAAAAAAAAAAAAAAAAAAAAAAAAAAAAAAAAAAAAAAAAAAAAAAAAAAAAAAAAAAAAAAAAAAAAAAAAAAYAMg8MTiadNXqTjFc5NI0//wB7Ce3gRc4rdo8ckt2SYIvygwnt4fEeUGE9vD4nnVh7S+J5nj3RKAi/KDCe3h8R5QYT28PiOrD2l8Rnj3RKAi/KDCe3h8T2w2a4eq7Qqwb5X19wVSD2a+IU4vk3gYMkyQAAAAAAAAAAAAAAAAAAAAAIzPczWGouejm9Irm+fcuJJM5xtJmf8RXbT/Dp3jH6y8flYzYqt0oabvYpr1MkdNyPxOInVm51JOUn1v5LkjzAOG9XdnM3FhYAHgsLHyfQAsfJ9AAtmyeeSlJYerK915knxuvVb6+zuLgcjpzcWpJ2lFpp8mtUzpmSZgsRQjU9bhJcpLj9/E62CruSyS3Xp/RvwtXMsr3JAAG81gAAAAAAAAAAAAAAAA8q1aMIOcnaMU232IAgtr8z6Kj0UfTrJruh1vx4e8oZt5njpV60qsvWei5RXBGscHEVurO/HByq1TPK/AEYtuyTb5LVn3h6Eqk1Tgrym7JHQ8kyanhoaWdRrzp/Rcke4fDyqvsj2lRdR+Bzhqzs1ZrqZP7H5fTrVZOpHeVKMWk+F5X1a67WPfbro+lhu26TdlvW5abu98T12B9Or+mHzkWU6SjiVB62+hKFNRrKL1/w3tq8spfw0qkYKM6dndK11ezTtx4lHOj7Ufkqv6V+5FDyd01iabq26Pf1vw7L9l7EsbBdVJaX+pLEpdRW5NWVOSSbi0nwbTSfdzMHVMVhYVYOE4qUGuH1XI57nuUywtS3GnL0Zf8Ay+1EMRhHSWZO6I1sO6eu6Ism9lsy6Cvuyf4dW0X2P1Ze/TxIY+TPCbhJSXBTGTi7o68CC2VzPp6G7J/iUrJ9q9WX/eROn0EJqcVJbM60ZKSugACRIAAAAAAAAAAAAFQ22zPhhovlKfzjH6+4sWaY2NCjKrL1VoucnwXvOZVq0pzc5O8pttvtZhx1bLHIt36f2ZcVUtHKuT5AMWOQc8uexWXqNN4iS86pdR7Iri/Fr4G9tNnH8NT3Yf8AtqcP5V1yf0JTCUFTpxprhCKj7kc72hxbq4qpK+kZOC7o6fO78Tr1n0KKjHf7udCo+jSSW5Hzk222223dt6tvmy07A+nV/TD5yKsWrYH0636afzkYcJ+9H3+jMuH/AHETu1H5Kr+lfuRzY6TtR+Sq/pX7kc4LfxD9xeRZi/8ApeRZdks6cJLD1H5ktIN+q+qPcy05vgI4ijKm+LV4vlJcGcwTtquKOoZTiumw9Op1ygr9/B/FMvwVTPF05faLMNPMnCRzCcHFtNWabTXJriCW2qw+5jJ24TtP3rX4pkScyccknHsY5Ryya7G5k+YPD141Fw4SXOL4/fwOmUqilFSTupJNPmnwZycuOxeZ70Xh5PWGsO2PWvD69huwNaz6b52NOFqWeR8lrAB1TeAAAAAAAAAAAAVTbyb3KUepyk/FKy+bKcX/AGsy91sPePpUnvJc16y92vgc+OLjYtVbvlHNxKaqXPo+8NbpI34b8fmj4PlmS9jOdeOTYhfiSvx35e+7On5diFVowqL14p+PX8Sg7TYR0sXPTzaj31/u4/G51cerwUlt9Tfi1eKkiLLJsNWjGtUi3Z1Ix3e3dbuviVswnbU51KeSal2McJ5JKR0La2vGOEnFvWpaKXW9U38Ec+M1KkpO8pNvm238zBPEVurLNaxKrU6krg6Hsjf+Cp35z/eznkIOTUUruTSS5t6JHUsuw3RUYU/8kEvHr+Jo/D4tzb8C7CK8mym7bv8A8pf6UfnIr5J7TYnpMXUa4Ragv9uj+NyMM1dp1JNdyiq7zfmYN/IKjji6TXHpLeD0fwZok9sfl7qYjpX6FHXvk00l9fceUYuVSKXdHlKLc0kX4AH0B1wAAAAAAAAAAADDOdbT5b/D124r8OreUex+tHw+p0Yjc9y9Yig4estYvlJffh4mfFUerCy3WxTWp5425OagxKLTaas07NcmuKMnCOWW3YnMlZ4aT5yh85R+vvJnP8pWKpW4VIaxfb1p9jOc05OMlKLalF3TXFNcGX7INoIV0oTajWXV1S7Y/Y6eFrRnDpT93ibaFSMo9ORRK9CdObhOLjKPFP8A7qfB0/MMso4iNqkE7cHwku5lexGxiv8Ah1rLlKN/imvkU1MDOL/Tqv5ITwsk/wBOqKiC00tip386urdkXf4smss2ew9BqSW/NetLW3cuCIwwVVvXQjHDTe+hFbK5E4tYiqrP1Iviv5mup8kTWf5ksPQcvXlpBc5Pr8OJ7ZnmVPDw36j7or0pPkkc9zXMp4mq5y0XCMeqK+/aa6tSGHhkhv8Aev0NE5xowyx3+9TSb95kA5JzzNOm5yUYq8pNJLm3ojpmT4BYehGmuKV5PnJ8WVzYrLLyeIktI3jDv9aX095cjrYGjljnfPob8LTssz5AAN5rAAAAAAAAAAAAAAAKRtnlm5UVeK82o7S7J9T8Uveu0rR1LHYWNanKnLhONu7k12pnMsZhpUqkqcvSg7d/J+K1OPjaOSeZbP1OdiaeWWZcnkGAYjMTeX7T4ikt2VqkV1S0l/V97k1S2yotefTmn2WkvmilA0wxdWGifxLo16keS8z2ww9tIzb7kvqRmN2wqSVqVNQ/ml5z93BfErIPZYyq+beR7LE1HyfeIrTqSc5ycpPrZ8AGUoB75fg5V6saUeMnx5LrfuNYvWxuWdHS6aS8+qtOyHV7+PuL8PS6s8vHJZSp9SVuOSew1CNOEacVaMEkvA9jBk7y0OsAAAAAAAAAAAAAAAAAACq7Z5ZvQWIgvOgrSt1x6n4P4PsLUYZXVpqpFxZCcFOOVnJAXTMtkYTblRluN+q1ePh1ojvIyv7Sn/d9jjywlZO1rnPeHqLgrgLJ5G1/aU/7vsPI2v7Sn/d9jz8rW9k86FTsVsFk8ja/tKf932HkbX9pT/u+x5+VreyOhU7FbBZPI2v7Sn/d9j1w+xk7/iVYqP8AKm38eB6sLW9kdCp2IfZ/LHiK6i1+HHzpvsXq+P3OkxVlZdRrZfgKdCG5TjZdb62+bfWbZ1cNQ6UbPd7m6hS6cbcgAGguAAAAAAAAAAAAAAAAAAAAAAAAAAAAAAAAAAAAAAAAAAAAAAAABhsyR+ewnLC1Iw9JwdkuL5peFyMnZXPG7K5oYjavCwlu70pdsU2vBvj4Ejl2aUsQm6Ur7trpppq/DQq2zeZYOnS3KsUql3eUouSeumtnay0sWrLqdBRcqChuzd24Ws34GehUlUs8y8luimlOU9bryN0FVqZ/iXialClSjKUZNR46KPGUtdfgZw2d4mniI0cVTilUaSlHt4Pi01fQl+Zh472vbS5714/ItJgr+0GdTw1anCMU4SV5LXeetrR10PTKcTjp1X09KMKTi2vRun1L0m/gT60c+TW/kS6izZT3ynO6eJnOEIyTp9b4NXtdEsV3ZzH9LXrx6OnHdlxgrN6tec+vgarz/FSxFWhSpRlKM2o9VlFtNyu9erkVxrpQTk73bWiIxqpRTbvfwLYCrYHO8RDERoYqEU6jSTXN8ODaavobWf5zOjONGjBSrVOF+CTdlp1tu/uJrEQyuXbTbW571o5c3+k+CoY3O8dh4fjUoed6MtGr9aaUuXcWbBVekpQm1rOEZPvaTPYVozbir3XdWJRqKTsYxuNp0YdJUlaKaV+Or4KyI7yqwftH/RP7Hjtt+U/5YmlhMwy5UIRqKDkqcVL8OTe9bXXd4367lNStJVHFNLS+pXOo1PKmlpfUsuExlOtHfpzUo9nPk+RslV2Iw04wqVGmqdRrdT67X1+KQqZ5ia1WVPCU4uNN2cpfPVpK9mTjX/RGUlq+F8j2Nb9Cb3ZagVnLc7rLELD4qmozl6LXPqvq1rrqj1znOqlOqsPQgpVpc+Cvqla66teOhLrwy5vd437WPerHLmLCeGIrwpxc5yUYri27LkVmed4zDSi8VSj0cna8ePbaza4dR6bZVKzoeaovDyUHKXrX3lu214cOojLELJJpO64seOssraW3BZaVSMoqUWnGSumtU12HoVnZeeL3KcZQh/D9HpL1uzr+hZSynPPG9rE4SzK9jIALCYPDFYiNKDqTdoxV2z3POrTUouMknFqzT1TXaePwDIapPL8Qt6Tptvi29yfjwZE7KWjjKsKUm6Fnr3W3X89SWq7KYSTvuSXYpSsSWAy+lQju04KKfHrb729WZVSnKcZSSVuVuyjJJyUmkrduSrZVioUszr78lFTcopvRXuna/VwPraavGti8PTpyUpRlruu9rtcuxNnxgMDTr5hiYVI3jq+TT3lZp9WhYcvyLD4eW9CHnf5pNtruvwKoQnUg46WzPz3KoRlKLjpa79SH2n/xDC/qj+9FrNHF5XSq1YVZpudJ3jq0tHdXXXqbxrpwcZSb5fyNMItSk+7+RU9j/wAzif1L90j62c/xHE98v3k5gcspUZznBNSqu8rtvt05atjCZZSpVZ1YJqdX0tW1xu7Lq1KYUZJQXZt/G/1K40msvg38yC2j/wASw3fD958Z1NUszpVZ6U91a9S0lF+5tMsGKyylVqwrST36Xo6tLR3V116mhtRiKEIQ6ei5xcnqtN3tv1XPKlNpSk3bVNe625GcLKTb5TI/bHMqM6EacKkZSc1LzWnZJPi13osWU/lqX+lD9qKPj6uFnFUcJRl0k5ptu7dlfzVdt8WuzQvmCpblKEHxhCMfcrChJzqSlpsttvIUpOU3LTZbEPtt+T/5I/U+cuo4J4an0io73RR3r7l721v2kvj8FTr0+jqK8W0+LTuuDTRGeSeD/wAkv6pEp059TMknolr/AIyUoSz5kk9OSL2Vkv4uvTpP8BxbXLilF+5sbHYmFJ1aVSShPeXpNK9rprXl9SzYDLqVCO7Sgop8etvvb1ZrZhkOHry3pw858XFtN99uJGNCcFFq11fy149xFUpRSatdX/kg8zrRr5nQVJqW5u3a1Xmtyeq5IV6qo5xv1HaE1pJ8Nadk796aLBl2T0MPrThaTVt56ytyuz0zDLKOISVWF7cHwa7mh0JtX0zXv4dvQ96UrX5vcgNtMdSnQjThOMpuopWi07JJ66d6NnaGk45XuvjGFJPwcUzbwezuGpSU4wvJO6cm5WfNLgSeIoxqQcJpOMlZpkulOWZytdq2h705SzOXKsRmzmIg8LSgpx31T9G63tOOnEmCJwGz+HoT6SEXvK9rybtfkSxdSUlFKX8FkE1GzAALCYAAAAABhGQAAAAAAAAfLimrNaH0ADzp0ox9GKXckvkegAAAAAAAAAAAAAAAAAAAAAAAAAAAAAAAAAAAAAAAAAAAAAAAAAAAAAAAAAAAAAAAAAAAAAAAAAAAAAAAAAAAAAAAAAAAAAAAAAB//9k=;" vertex="1" parent="1">
          <mxGeometry x="301.21000000000004" y="680" width="100" height="129.96" as="geometry" />
        </mxCell>
        <mxCell id="s4qYqvt0TCnv7wZda3Gq-19" value="" style="sketch=0;points=[[0,0,0],[0.25,0,0],[0.5,0,0],[0.75,0,0],[1,0,0],[0,1,0],[0.25,1,0],[0.5,1,0],[0.75,1,0],[1,1,0],[0,0.25,0],[0,0.5,0],[0,0.75,0],[1,0.25,0],[1,0.5,0],[1,0.75,0]];outlineConnect=0;fontColor=#232F3E;fillColor=#ED7100;strokeColor=#ffffff;dashed=0;verticalLabelPosition=bottom;verticalAlign=top;align=center;html=1;fontSize=12;fontStyle=0;aspect=fixed;shape=mxgraph.aws4.resourceIcon;resIcon=mxgraph.aws4.ec2;" vertex="1" parent="1">
          <mxGeometry x="316.22" y="480" width="70" height="70" as="geometry" />
        </mxCell>
        <mxCell id="s4qYqvt0TCnv7wZda3Gq-20" style="edgeStyle=orthogonalEdgeStyle;rounded=0;orthogonalLoop=1;jettySize=auto;html=1;exitX=0.5;exitY=1;exitDx=0;exitDy=0;entryX=1;entryY=0.5;entryDx=0;entryDy=0;" edge="1" parent="1" source="s4qYqvt0TCnv7wZda3Gq-7" target="s4qYqvt0TCnv7wZda3Gq-16">
          <mxGeometry relative="1" as="geometry">
            <mxPoint x="609" y="332" as="sourcePoint" />
            <mxPoint x="750" y="420" as="targetPoint" />
          </mxGeometry>
        </mxCell>
        <mxCell id="s4qYqvt0TCnv7wZda3Gq-21" value="Deploy" style="text;html=1;align=center;verticalAlign=middle;resizable=0;points=[];autosize=1;strokeColor=none;fillColor=none;fontSize=14;fontStyle=1" vertex="1" parent="1">
          <mxGeometry x="610" y="740" width="70" height="30" as="geometry" />
        </mxCell>
        <mxCell id="s4qYqvt0TCnv7wZda3Gq-23" style="edgeStyle=orthogonalEdgeStyle;rounded=0;orthogonalLoop=1;jettySize=auto;html=1;entryX=1;entryY=0.5;entryDx=0;entryDy=0;exitX=0.5;exitY=1;exitDx=0;exitDy=0;" edge="1" parent="1" source="s4qYqvt0TCnv7wZda3Gq-10" target="s4qYqvt0TCnv7wZda3Gq-16">
          <mxGeometry relative="1" as="geometry">
            <mxPoint x="770" y="540" as="sourcePoint" />
            <mxPoint x="670" y="865.61" as="targetPoint" />
            <Array as="points">
              <mxPoint x="768" y="729" />
            </Array>
          </mxGeometry>
        </mxCell>
        <mxCell id="s4qYqvt0TCnv7wZda3Gq-25" value="" style="shape=image;verticalLabelPosition=bottom;labelBackgroundColor=default;verticalAlign=top;aspect=fixed;imageAspect=0;image=https://cdn.iconscout.com/icon/free/png-256/free-mongodb-226029.png;" vertex="1" parent="1">
          <mxGeometry x="-38" y="686.49" width="96" height="96" as="geometry" />
        </mxCell>
        <mxCell id="s4qYqvt0TCnv7wZda3Gq-27" value="" style="endArrow=classic;startArrow=classic;html=1;rounded=0;exitX=1;exitY=0.5;exitDx=0;exitDy=0;exitPerimeter=0;entryX=0;entryY=0.5;entryDx=0;entryDy=0;" edge="1" parent="1" source="s4qYqvt0TCnv7wZda3Gq-26" target="s4qYqvt0TCnv7wZda3Gq-16">
          <mxGeometry width="50" height="50" relative="1" as="geometry">
            <mxPoint x="400" y="560" as="sourcePoint" />
            <mxPoint x="450" y="510" as="targetPoint" />
          </mxGeometry>
        </mxCell>
        <mxCell id="s4qYqvt0TCnv7wZda3Gq-28" value="데이터&lt;br&gt;조회 &amp;amp; 저장" style="text;html=1;align=center;verticalAlign=middle;resizable=0;points=[];autosize=1;strokeColor=none;fillColor=none;fontSize=14;fontStyle=1" vertex="1" parent="1">
          <mxGeometry x="80" y="732.49" width="100" height="50" as="geometry" />
        </mxCell>
        <mxCell id="s4qYqvt0TCnv7wZda3Gq-29" value="Mongo DB" style="text;html=1;align=center;verticalAlign=middle;resizable=0;points=[];autosize=1;strokeColor=none;fillColor=none;fontSize=15;fontStyle=1" vertex="1" parent="1">
          <mxGeometry x="-39.99999999999994" y="626.97" width="100" height="30" as="geometry" />
        </mxCell>
      </root>
    </mxGraphModel>
  </diagram>
</mxfile>
